<svg width="57" height="56" viewBox="0 0 57 56" fill="none" xmlns="http://www.w3.org/2000/svg">
<path fill-rule="evenodd" clip-rule="evenodd" d="M29.2715 55.7808C28.4594 55.7978 27.3335 55.781 26.7696 55.7433C26.2056 55.7056 25.2089 55.5941 24.5547 55.4955C23.9005 55.397 22.8876 55.2068 22.3039 55.0728C21.7201 54.9389 20.8896 54.7171 20.4582 54.58C20.0268 54.4429 19.1247 54.1115 18.4536 53.8437C17.7824 53.5759 16.8595 53.1702 16.4028 52.9421C15.946 52.714 15.2216 52.3219 14.793 52.0706C14.3644 51.8194 13.6446 51.3666 13.1934 51.0644C12.7422 50.7621 11.9501 50.1868 11.433 49.7858C10.916 49.3847 9.93274 48.5029 9.24797 47.8261C8.56319 47.1494 7.70635 46.2191 7.34386 45.7587C6.98137 45.2984 6.4294 44.5601 6.11727 44.1181C5.80514 43.6761 5.28725 42.8677 4.96641 42.3217C4.64556 41.7756 4.18006 40.9451 3.93195 40.476C3.68385 40.0068 3.31749 39.2539 3.11783 38.8027C2.91817 38.3515 2.58508 37.5025 2.37764 36.916C2.17019 36.3295 1.87451 35.388 1.72056 34.8239C1.56661 34.2598 1.34534 33.2447 1.22885 32.5681C1.11236 31.8915 0.97417 30.9318 0.921762 30.4355C0.869354 29.9392 0.828185 28.8687 0.830276 28.0566C0.832402 27.231 0.892716 26.0919 0.967095 25.4726C1.04025 24.8636 1.15567 24.0199 1.22358 23.5978C1.2915 23.1758 1.49054 22.2714 1.6659 21.5881C1.84126 20.9047 2.17183 19.8054 2.40049 19.145C2.62915 18.4846 3.00283 17.5249 3.23088 17.0122C3.45894 16.4995 3.83241 15.7294 4.06083 15.3008C4.28925 14.8721 4.62484 14.3092 4.8066 14.0498C5.05509 13.6951 5.18664 13.5781 5.33687 13.5781C5.44676 13.5781 5.72967 13.7062 5.96555 13.8628C6.20144 14.0193 6.51178 14.2935 6.65521 14.472C6.79864 14.6504 6.9556 14.8834 7.004 14.9896C7.08058 15.1577 6.99187 15.3798 6.3217 16.6978C5.89802 17.5311 5.38416 18.6743 5.17977 19.2383C4.97539 19.8022 4.69401 20.6512 4.55448 21.125C4.41495 21.5987 4.22633 22.337 4.13533 22.7656C4.04432 23.1942 3.90474 23.9325 3.82515 24.4062C3.70613 25.1147 3.68066 25.7698 3.68166 28.0976C3.68282 30.8061 3.69251 30.9838 3.90733 32.2321C4.03078 32.9496 4.20379 33.8171 4.29179 34.1599C4.37979 34.5027 4.55989 35.0969 4.692 35.4804C4.82411 35.8639 5.10147 36.6114 5.30837 37.1414C5.51526 37.6714 5.78155 38.2989 5.90013 38.5359C6.0187 38.7729 6.30244 39.299 6.53066 39.7051C6.75888 40.1111 7.16981 40.8125 7.44384 41.2636C7.71787 41.7148 8.2098 42.4438 8.53701 42.8837C8.86423 43.3235 9.57248 44.1771 10.1109 44.7806C10.6493 45.384 11.4155 46.1692 11.8135 46.5254C12.2115 46.8815 12.7955 47.3807 13.1114 47.6345C13.4272 47.8884 14.2062 48.4452 14.8426 48.8719C15.4789 49.2985 16.4756 49.8885 17.0574 50.183C17.6392 50.4775 18.5582 50.9028 19.0996 51.1281C19.641 51.3534 20.5454 51.6896 21.1094 51.8752C21.6734 52.0608 22.6516 52.3272 23.2832 52.4671C23.9149 52.607 24.6347 52.756 24.8828 52.7982C25.131 52.8403 25.7377 52.9294 26.2311 52.996C26.7625 53.0678 27.7752 53.1172 28.7149 53.1172C29.5876 53.1172 30.8415 53.0605 31.5013 52.9912C32.1612 52.9219 33.1433 52.7718 33.6837 52.6577C34.224 52.5436 35.1122 52.3207 35.6573 52.1622C36.2024 52.0038 37.108 51.705 37.6698 51.4981C38.2316 51.2912 39.248 50.837 39.9286 50.4888C40.6092 50.1406 41.4983 49.6636 41.9043 49.4288C42.3104 49.1939 42.9195 48.7953 43.2578 48.543C43.5962 48.2906 44.1499 47.8608 44.4883 47.5877C44.8267 47.3147 45.6709 46.5368 46.3644 45.8591C47.0578 45.1814 47.8555 44.3316 48.137 43.9707C48.4184 43.6097 48.9438 42.8715 49.3043 42.3301C49.6649 41.7886 50.1451 41.0135 50.3715 40.6074C50.5978 40.2013 50.9911 39.454 51.2456 38.9465C51.5 38.4391 51.8512 37.6639 52.0259 37.2239C52.2007 36.7838 52.4616 36.0794 52.6056 35.6584C52.7496 35.2374 52.9938 34.2592 53.1482 33.4845C53.3027 32.7099 53.4681 31.6332 53.5159 31.0918C53.5637 30.5504 53.6285 29.9424 53.6598 29.7407C53.705 29.4502 53.7726 29.3367 53.9855 29.1938C54.1709 29.0694 54.4446 28.9957 54.8694 28.9559C55.2078 28.9242 55.6019 28.9217 55.7453 28.9504C55.8886 28.979 56.0906 29.0822 56.1943 29.1796C56.3543 29.3299 56.3828 29.4392 56.3828 29.9024C56.3828 30.2025 56.3438 30.8513 56.2962 31.3441C56.2485 31.837 56.1539 32.5724 56.086 32.9785C56.0181 33.3845 55.8332 34.2151 55.6751 34.8242C55.517 35.4333 55.2573 36.317 55.098 36.788C54.9387 37.259 54.6068 38.1064 54.3605 38.6711C54.1142 39.2359 53.7377 40.0318 53.5239 40.4398C53.3101 40.8478 52.9202 41.5508 52.6575 42.0019C52.3949 42.4531 52.0319 43.0437 51.851 43.3144C51.6702 43.5851 51.3728 44.0096 51.1902 44.2578C51.0076 44.5059 50.6361 45.0043 50.3646 45.3652C50.093 45.7261 49.5461 46.3964 49.1492 46.8547C48.7523 47.3129 48.0488 48.039 47.5858 48.4682C47.1229 48.8974 46.375 49.5402 45.9239 49.8966C45.4727 50.253 44.698 50.8164 44.2023 51.1485C43.7066 51.4806 42.7089 52.0726 41.9852 52.464C41.2615 52.8554 40.2377 53.3667 39.71 53.6003C39.1824 53.8338 38.4004 54.1517 37.9722 54.3067C37.5441 54.4617 36.611 54.7367 35.8987 54.9179C35.1863 55.0991 34.4005 55.286 34.1524 55.3333C33.9042 55.3805 33.0367 55.4936 32.2246 55.5845C31.4125 55.6754 30.0836 55.7637 29.2715 55.7808ZM27.2822 51.5547C27.2484 51.5525 26.9996 51.4261 26.7293 51.2737C26.4591 51.1213 25.9853 50.9108 25.6764 50.8059L25.1149 50.6152L25.1417 49.2388L25.1684 47.8623L24.4719 47.2124C24.0888 46.855 23.7293 46.5608 23.6729 46.5586C23.5948 46.5556 23.5701 46.8825 23.5694 47.9287C23.5689 48.6844 23.5456 49.4411 23.5177 49.6103C23.4897 49.7795 23.442 49.9179 23.4117 49.9179C23.3814 49.9179 22.9611 49.6605 22.4777 49.3458C21.9943 49.0312 21.26 48.4526 20.8458 48.0601L20.0927 47.3464L20.0884 43.4775L20.084 39.6085L19.788 39.2466C19.6251 39.0476 19.3919 38.6872 19.2696 38.4457C19.1474 38.2042 18.9387 37.5334 18.806 36.955C18.6732 36.3767 18.4544 35.2084 18.3198 34.359C18.1852 33.5095 18.0749 32.7907 18.0747 32.7617C18.0744 32.7327 17.8448 32.6685 17.5644 32.6191C17.284 32.5697 16.8609 32.4345 16.6242 32.3187C16.3584 32.1887 16.0053 31.9024 15.7006 31.57C15.3742 31.2137 15.0573 30.7368 14.7634 30.1594C14.5192 29.6796 14.2237 29.0194 14.1067 28.6922C13.9898 28.365 13.8201 27.8077 13.7297 27.4537C13.6393 27.0997 13.5415 26.4989 13.5122 26.1185C13.4795 25.6927 13.4959 25.2546 13.555 24.9781C13.6077 24.7313 13.7418 24.3916 13.8529 24.2233C13.964 24.055 14.2074 23.8395 14.3937 23.7444C14.639 23.6193 14.8372 23.5808 15.1114 23.6052C15.3198 23.6237 15.5456 23.6643 15.6133 23.6954C15.7216 23.7451 15.7331 23.4403 15.7096 21.1565C15.6948 19.723 15.722 18.1343 15.7704 17.6077C15.8185 17.0833 15.9455 16.3405 16.0524 15.957C16.1594 15.5735 16.3454 15.0198 16.4657 14.7265C16.586 14.4333 16.8831 13.8611 17.1259 13.4551C17.3687 13.049 17.8683 12.2923 18.2361 11.7734C18.6039 11.2546 19.2114 10.4767 19.586 10.0449C19.9606 9.61307 20.6319 8.95317 21.0779 8.57846C21.5238 8.20375 22.0895 7.76704 22.3349 7.608C22.5803 7.44895 23.1525 7.14255 23.6064 6.92712C24.0603 6.71169 24.8138 6.40345 25.2809 6.24215C25.7479 6.08085 26.4881 5.87592 26.9258 5.78673C27.3634 5.69755 28.1625 5.58555 28.7015 5.53785C29.405 5.47559 29.9479 5.47688 30.625 5.54239C31.1439 5.5926 31.9006 5.68687 32.3067 5.75189C32.7127 5.81691 33.2295 5.90998 33.4551 5.95871C33.6807 6.00744 34.2344 6.15807 34.6856 6.29344C35.1367 6.4288 36.0227 6.74285 36.6543 6.99131C37.286 7.23977 38.2001 7.64559 38.6856 7.89313C39.1712 8.14067 39.8541 8.5296 40.2032 8.75742C40.5523 8.98525 41.0963 9.38459 41.4121 9.64485C41.728 9.9051 42.2107 10.3521 42.4848 10.6381C42.759 10.9241 43.082 11.281 43.2026 11.4311C43.3232 11.5812 43.4219 11.7352 43.4219 11.7734C43.4219 11.8115 43.1358 11.7526 42.7862 11.6423C42.4365 11.5321 41.8891 11.3683 41.5697 11.2784C41.2504 11.1885 40.5879 11.0243 40.0975 10.9135C39.6072 10.8027 39.1931 10.7249 39.1773 10.7407C39.1615 10.7565 39.6618 11.3086 40.289 11.9677C40.9162 12.6268 41.66 13.4895 41.9418 13.8848C42.2237 14.2801 42.6218 14.9357 42.8264 15.3418C43.031 15.7478 43.2634 16.2646 43.3428 16.4902C43.4221 16.7158 43.5155 16.9707 43.5502 17.0567C43.6047 17.1917 43.5638 17.1826 43.251 16.99C43.0517 16.8672 42.4889 16.5687 42.0002 16.3265C41.3729 16.0156 41.1274 15.9268 41.1648 16.0242C41.1939 16.1 41.2896 16.4205 41.3773 16.7363C41.4651 17.0521 41.5783 17.7535 41.6288 18.2949C41.6861 18.9084 41.7008 19.9591 41.6679 21.084C41.6389 22.0765 41.5918 23.0835 41.5634 23.3217L41.5118 23.7548L41.7491 23.6641C41.8796 23.6141 42.1732 23.5687 42.4017 23.5631C42.6823 23.5562 42.9073 23.6056 43.0954 23.7155C43.2561 23.8093 43.4522 24.0329 43.5594 24.2447C43.6616 24.4463 43.7845 24.8646 43.8327 25.1742C43.8808 25.4837 43.8966 25.9636 43.8678 26.2406C43.839 26.5175 43.7465 27.021 43.6623 27.3594C43.5781 27.6977 43.3977 28.279 43.2615 28.6511C43.1252 29.0231 42.8435 29.6664 42.6355 30.0805C42.4275 30.4947 42.1138 31.0278 41.9384 31.2652C41.763 31.5027 41.497 31.7904 41.3472 31.9046C41.1975 32.0188 40.8924 32.193 40.6693 32.2917C40.4462 32.3904 40.0637 32.493 39.8192 32.5198L39.3748 32.5683L39.232 33.3886C39.1535 33.8398 38.955 34.9013 38.7909 35.7475C38.6267 36.5937 38.4378 37.441 38.371 37.6303C38.3042 37.8196 38.1246 38.1978 37.972 38.4707C37.8194 38.7435 37.5788 39.1123 37.4375 39.2901L37.1804 39.6135L37.1916 43.51L37.2027 47.4064L36.6824 47.8432C36.3963 48.0834 35.9543 48.4086 35.7002 48.5658C35.4462 48.7229 35.1997 48.8515 35.1524 48.8515C35.1052 48.8515 35.0445 48.6393 35.0176 48.3799C34.9907 48.1204 34.9281 47.6446 34.8786 47.3225C34.829 47.0004 34.7603 46.6912 34.7258 46.6353C34.6819 46.5643 34.5678 46.6384 34.3462 46.882C34.1719 47.0735 33.9849 47.3126 33.9305 47.4135C33.8762 47.5143 33.7934 47.8329 33.7466 48.1216C33.6997 48.4103 33.6606 48.9602 33.6595 49.3437C33.6585 49.7272 33.6305 50.0809 33.5974 50.1298C33.5643 50.1786 33.2787 50.3692 32.9629 50.5533L32.3887 50.888L32.3304 50.4461C32.2983 50.2031 32.2172 49.898 32.15 49.7682C32.0829 49.6384 31.8946 49.4151 31.7317 49.2721C31.5688 49.129 31.4005 49.0336 31.3578 49.06C31.3151 49.0864 31.2256 49.2134 31.1591 49.3421C31.0925 49.4708 30.9956 49.9215 30.9437 50.3435L30.8494 51.1109L30.0195 51.336C29.563 51.4598 29.1433 51.5605 29.0869 51.5598C29.0126 51.5589 28.9844 51.3551 28.9844 50.8179V50.0772L28.2256 49.2723C27.6432 48.6546 27.4539 48.4978 27.4111 48.598C27.3804 48.6698 27.3527 49.3653 27.3495 50.1435C27.3464 50.9218 27.3161 51.5568 27.2822 51.5547ZM20.8018 50.9013C20.7679 50.9008 20.5188 50.7773 20.2481 50.6269L19.7559 50.3534L19.7319 49.7742L19.708 49.1949L20.2334 49.4739C20.7424 49.7442 20.7605 49.7649 20.8111 50.134C20.8398 50.3436 20.8633 50.6022 20.8633 50.7087C20.8633 50.8152 20.8356 50.9019 20.8018 50.9013ZM36.6241 50.208C36.4811 50.2487 36.4394 50.234 36.4662 50.1521C36.4862 50.091 36.6998 49.9026 36.9409 49.7335C37.182 49.5644 37.3959 49.4427 37.4163 49.4631C37.4366 49.4835 37.432 49.5849 37.406 49.6885C37.38 49.7922 37.2371 49.939 37.0885 50.0149C36.94 50.0907 36.731 50.1776 36.6241 50.208ZM41.3618 48.1683C41.2438 48.2701 41.2238 48.2487 41.1781 47.9723C41.1499 47.8017 41.1264 47.1598 41.1259 46.5458L41.125 45.4296L40.6208 45.3769C40.3435 45.3479 39.7898 45.3242 39.3903 45.3242H38.6641V44.7522V44.1801L39.874 44.1574L41.084 44.1347L41.0713 43.8622C41.0643 43.7124 41.0358 43.567 41.008 43.5392C40.9801 43.5113 40.5798 43.4606 40.1184 43.4265C39.6569 43.3923 39.2055 43.3498 39.1153 43.332C39.025 43.3142 38.8968 43.2036 38.8303 43.0861C38.7639 42.9687 38.7281 42.8539 38.7509 42.8311C38.7737 42.8083 39.2838 42.7324 39.8845 42.6624C40.4852 42.5924 41.0155 42.5111 41.063 42.4818C41.1213 42.4457 41.1341 41.9228 41.1024 40.8747C41.0766 40.0202 41.0375 39.3031 41.0155 39.2811C40.9935 39.2591 40.5754 39.4823 40.0864 39.7771C39.5974 40.072 39.0966 40.337 38.9736 40.3662L38.75 40.4191L38.8781 39.9801C38.9486 39.7386 39.0935 39.3933 39.2001 39.2129C39.3067 39.0324 39.4789 38.7879 39.5827 38.6695C39.6866 38.5511 40.1334 38.1897 40.5757 37.8665L41.38 37.2789L41.1385 36.9744C41.0057 36.8069 40.8191 36.5996 40.7239 36.5136C40.5624 36.3678 40.5408 36.3665 40.4008 36.4931C40.3183 36.5678 40.226 36.6289 40.1957 36.6289C40.1654 36.6289 40.1409 36.3982 40.1412 36.1162C40.1416 35.7542 40.1851 35.5432 40.2892 35.3984C40.3703 35.2856 40.99 34.6371 41.6664 33.9574C42.3428 33.2776 43.142 32.3917 43.4425 31.9886C43.743 31.5856 44.1875 30.9236 44.4303 30.5176C44.6731 30.1115 45.0608 29.2979 45.2918 28.7096C45.5344 28.092 45.7654 27.3335 45.8384 26.9147C45.908 26.5158 45.9649 25.8609 45.9649 25.4593C45.9649 24.9396 45.9159 24.5821 45.7949 24.2191C45.7015 23.9385 45.4573 23.3952 45.2522 23.0117C45.0472 22.6282 44.7458 22.1483 44.5824 21.9453C44.419 21.7423 44.0542 21.3284 43.7716 21.0257L43.2578 20.4752V19.7001V18.925L43.6885 19.0396C43.9254 19.1027 44.2115 19.1597 44.3242 19.1664C44.5092 19.1774 44.5118 19.182 44.3507 19.2133C44.2525 19.2325 44.132 19.2964 44.083 19.3555C44.0143 19.4383 44.2022 19.6771 44.902 20.3965C45.5581 21.071 45.824 21.2959 45.86 21.207C45.8875 21.1393 46.0108 20.9896 46.1342 20.8742L46.3585 20.6644L45.5952 19.8551L44.8318 19.0458L44.8446 18.4121C44.8526 18.016 44.8882 17.7962 44.9395 17.8258C44.9846 17.8519 45.3183 18.1036 45.681 18.385C46.0438 18.6665 46.6173 19.1864 46.9554 19.5404C47.2936 19.8944 47.8274 20.5711 48.1416 21.0442C48.4558 21.5172 48.813 22.1258 48.9354 22.3965C49.0578 22.6672 49.3244 23.3186 49.528 23.8442C49.7672 24.4619 49.9584 25.1434 50.0688 25.7719C50.1628 26.3066 50.3318 27.1871 50.4444 27.7285C50.5569 28.2699 50.7374 29.285 50.8454 29.9844C50.9534 30.6837 51.0979 31.7542 51.1666 32.3633C51.2353 32.9723 51.3502 34.0125 51.422 34.6747C51.5216 35.5937 51.5313 35.9576 51.4629 36.2116C51.4136 36.3947 51.1986 36.7757 50.9852 37.0583C50.7717 37.341 50.5054 37.7104 50.3933 37.8793C50.2812 38.0482 50.1707 38.1866 50.1479 38.1869C50.125 38.1872 50.1198 37.8891 50.1363 37.5244C50.1529 37.1597 50.1408 36.5875 50.1094 36.2529L50.0524 35.6445H48.952H47.8516V39.0711V42.4977L47.1543 43.1914L46.4571 43.885V43.4152V42.9453H44.4765H42.4959L42.5551 45.1905L42.6143 47.4358L42.0542 47.7449C41.7462 47.915 41.4346 48.1055 41.3618 48.1683ZM15.9619 48.1944C15.9281 48.1939 15.6631 48.0278 15.3731 47.8253C15.0831 47.6227 14.7976 47.457 14.7387 47.457C14.6536 47.457 14.627 46.9884 14.6097 45.1806L14.5879 42.9043L12.291 42.8974L9.99416 42.8906L9.7375 42.5034C9.59634 42.2905 9.27255 41.8994 9.01797 41.6343L8.5551 41.1524L8.52075 37.0244C8.50025 34.5604 8.45345 32.8136 8.40466 32.6913C8.33931 32.5274 8.32188 32.6138 8.31772 33.122L8.31252 33.7578H7.61929C7.23802 33.7578 6.74059 33.718 6.5139 33.6694L6.10173 33.581L6.15192 32.5415C6.17952 31.9697 6.23849 31.4558 6.28298 31.3994C6.32791 31.3424 6.54171 31.2969 6.76397 31.2969C7.06844 31.2969 7.16408 31.2668 7.16408 31.1713C7.16408 31.1023 7.0762 30.8347 6.96878 30.5766C6.86136 30.3185 6.71371 29.8987 6.64065 29.6436C6.5676 29.3885 6.50783 29.084 6.50783 28.9668C6.50783 28.7573 6.49834 28.7539 5.91311 28.7526C5.58601 28.7519 5.28147 28.7242 5.23635 28.6911C5.18708 28.6549 5.15432 28.0575 5.15432 27.1953V25.7597L5.61388 25.7355L6.07344 25.7113L6.12511 24.423C6.15353 23.7145 6.18667 23.0622 6.19876 22.9735C6.21534 22.8518 6.16043 22.8013 5.97463 22.7676C5.77903 22.7321 5.72854 22.6811 5.72854 22.5187C5.72854 22.4063 5.7604 21.7515 5.79935 21.0634L5.87016 19.8125H6.34822C6.61115 19.8125 6.8494 19.7751 6.87767 19.7293C6.90594 19.6836 7.00223 19.379 7.09164 19.0526C7.18106 18.7261 7.41595 18.1267 7.61362 17.7207C7.81129 17.3146 8.08633 16.8601 8.22481 16.7107C8.36328 16.5613 8.47658 16.4163 8.47658 16.3886C8.47658 16.3608 8.36284 16.2431 8.22381 16.127C7.97179 15.9166 7.9714 15.915 8.09374 15.5879C8.16122 15.4074 8.34642 14.9485 8.50528 14.5682C8.69065 14.1244 8.86215 13.8389 8.98399 13.7713C9.08841 13.7134 9.3911 13.6646 9.65663 13.663L10.1394 13.6601L11.0105 12.8193C11.4896 12.3569 12.03 11.9121 12.2113 11.8309L12.541 11.6832L12.5098 10.8406L12.4786 9.99805L12.754 9.76588C12.9054 9.63818 13.1585 9.4796 13.3163 9.41346C13.532 9.32309 13.7697 9.30672 14.2732 9.34757C14.6416 9.37746 15.0647 9.43683 15.2135 9.47951C15.4432 9.54539 15.5545 9.52041 15.9513 9.31391C16.2083 9.18016 16.5696 9.04658 16.7542 9.01706L17.0899 8.96338V8.40842C17.0899 7.97805 17.119 7.84229 17.2196 7.80367C17.291 7.77629 17.7986 7.75445 18.3476 7.75514C18.8965 7.75583 19.4004 7.79094 19.4671 7.83316C19.5658 7.89555 19.519 7.97653 19.2172 8.26569C19.013 8.46136 18.6115 8.92392 18.3249 9.29361C17.8575 9.89665 17.782 9.96053 17.5904 9.91488C17.473 9.8869 17.3187 9.8343 17.2476 9.798C17.1636 9.7552 16.8662 9.83847 16.4012 10.0349C15.704 10.3295 15.6855 10.3444 15.7308 10.5737C15.7564 10.7034 15.7774 10.9887 15.7774 11.2076V11.6057L16.1554 11.366C16.3632 11.2342 16.6427 11.1023 16.7765 11.0729C16.9102 11.0435 17.0406 11.0406 17.0663 11.0663C17.092 11.092 16.9849 11.2708 16.8283 11.4637C16.6718 11.6566 16.3545 12.0963 16.1233 12.4408C15.8101 12.9076 15.5504 13.1774 15.1044 13.4996C14.7752 13.7374 14.215 14.1753 13.8595 14.4728C13.5039 14.7703 12.9357 15.3274 12.5967 15.7109C12.2578 16.0944 11.8112 16.6666 11.6045 16.9824C11.3977 17.2982 10.9981 18.0106 10.7165 18.5654C10.4349 19.1203 10.0958 19.9139 9.96302 20.3291C9.83024 20.7443 9.6609 21.3608 9.58671 21.6992C9.50311 22.0805 9.4348 22.8915 9.4071 23.832C9.37215 25.0182 9.39171 25.5281 9.49667 26.1669C9.57052 26.6164 9.70933 27.244 9.80512 27.5614C9.90092 27.8789 10.1213 28.5182 10.2949 28.9821C10.4685 29.446 10.7987 30.2006 11.0287 30.6589C11.2588 31.1173 11.7655 31.9374 12.1548 32.4815C12.5441 33.0255 13.2139 33.8307 13.6432 34.2706C14.0726 34.7106 14.47 35.0705 14.5264 35.0704C14.6027 35.0703 14.6289 34.8196 14.6289 34.0908C14.6289 33.4629 14.6615 33.0911 14.7198 33.0551C14.7697 33.0242 15.0831 33.142 15.4161 33.3168L16.0217 33.6347L16.0226 35.2439L16.0235 36.853L16.5033 37.028C16.7673 37.1242 17.1226 37.3045 17.2929 37.4286C17.5575 37.6214 17.6229 37.735 17.7415 38.208C17.8179 38.5125 17.8756 38.7617 17.8698 38.7617C17.864 38.7617 17.64 38.6743 17.372 38.5676C17.104 38.4608 16.774 38.3245 16.6387 38.2648C16.5033 38.205 16.3095 38.0829 16.208 37.9935L16.0235 37.8307V38.4819V39.133L16.7412 39.5098C17.136 39.7171 17.7082 39.9897 18.0127 40.1158L18.5664 40.3449V40.9478C18.5664 41.2794 18.549 41.5508 18.5278 41.5508C18.5065 41.5508 18.195 41.4434 17.8355 41.3122C17.4759 41.181 16.9027 40.9274 16.5616 40.7487L15.9414 40.4237V42.17C15.9414 43.1304 15.9638 43.9746 15.9912 44.046C16.0336 44.1565 16.2274 44.1758 17.297 44.1758H18.553L18.5802 44.7606C18.5977 45.1369 18.575 45.3578 18.5165 45.3802C18.4664 45.3993 17.885 45.4037 17.2243 45.3901L16.0232 45.3652L16.0233 46.7802C16.0234 47.5585 15.9958 48.1949 15.9619 48.1944ZM28.7474 43.2653C29.3362 43.2708 29.8936 43.2176 30.47 43.1009C30.9388 43.006 31.5807 42.8085 31.8965 42.6621C32.2123 42.5157 32.7025 42.2203 32.9858 42.0056C33.2691 41.791 33.7348 41.3147 34.0208 40.9473C34.3069 40.5799 34.8376 39.8291 35.2003 39.279C35.563 38.7288 35.9355 38.0763 36.0281 37.8289C36.1206 37.5816 36.221 37.053 36.2511 36.6544C36.2833 36.2271 36.2661 35.6316 36.2091 35.2034C36.156 34.8041 36.0179 34.177 35.9022 33.8099C35.7866 33.4429 35.4898 32.7365 35.2427 32.2402C34.9957 31.7439 34.7646 31.301 34.7293 31.2558C34.6939 31.2107 34.291 30.5025 33.8339 29.6821C33.3768 28.8616 32.9787 28.1233 32.9492 28.0414C32.9028 27.9126 32.9222 27.9162 33.0933 28.0684C33.2021 28.1651 33.6048 28.4467 33.9883 28.6942C34.3718 28.9416 34.9172 29.2603 35.2003 29.4024C35.4835 29.5445 35.9449 29.7196 36.2257 29.7916C36.579 29.8822 36.9128 29.9077 37.3088 29.8746C37.733 29.8391 38.0341 29.7512 38.4713 29.5351C38.8613 29.3423 39.1874 29.1032 39.4332 28.8299C39.6378 28.6024 39.8987 28.2246 40.0132 27.9904C40.1276 27.7561 40.2626 27.3429 40.3132 27.0722C40.3706 26.765 40.3842 26.241 40.3495 25.6777C40.3189 25.1814 40.2058 24.1847 40.0982 23.4629C39.9702 22.6036 39.805 21.8671 39.6201 21.3301C39.4647 20.8789 39.204 20.1685 39.0408 19.7513C38.8776 19.3342 38.6915 18.7436 38.6272 18.4388C38.563 18.1341 38.4782 17.7978 38.4387 17.6916C38.3698 17.5059 38.3504 17.5176 37.9332 17.9992C37.6946 18.2746 37.4703 18.5 37.4348 18.5C37.3993 18.5 37.3531 17.8632 37.3322 17.0849C37.2985 15.8325 37.2698 15.6007 37.0825 15.0682C36.9662 14.7373 36.7524 14.2709 36.6076 14.0319C36.4627 13.7928 36.1173 13.353 35.84 13.0545C35.5627 12.7559 35.3002 12.5116 35.2568 12.5115C35.2098 12.5114 35.1887 12.8195 35.2048 13.2703C35.2197 13.6877 35.1885 14.3833 35.1356 14.8161C35.0827 15.2488 35.008 15.6538 34.9695 15.7161C34.931 15.7783 34.8827 15.8118 34.8621 15.7906C34.8416 15.7693 34.6633 15.4382 34.466 15.0547C34.2688 14.6712 33.9237 14.049 33.6992 13.672C33.4747 13.2951 33.0968 12.751 32.8594 12.463C32.622 12.1751 32.179 11.7329 31.875 11.4805C31.571 11.2281 31.1437 10.9301 30.9255 10.8183C30.574 10.6382 30.534 10.6319 30.5747 10.7635C30.6 10.8452 30.6997 11.2443 30.7963 11.6504C30.9199 12.17 30.974 12.674 30.9792 13.3522C30.9835 13.903 30.9511 14.3513 30.9036 14.3987C30.8477 14.4546 30.6576 14.2343 30.32 13.7223C30.0447 13.3046 29.5404 12.625 29.1993 12.2121C28.8272 11.7615 28.3116 11.2596 27.9099 10.957C27.5418 10.6796 27.0229 10.3427 26.7568 10.2084C26.4906 10.074 25.9324 9.84948 25.5163 9.7094C24.8863 9.49731 24.6295 9.45417 23.9805 9.45144C23.3361 9.44872 23.0838 9.48807 22.5231 9.67872C22.1502 9.80554 21.5741 10.0637 21.2429 10.2525C20.9117 10.4412 20.4509 10.7591 20.2189 10.9589C19.9868 11.1587 19.797 11.3549 19.7969 11.3949C19.7969 11.4348 19.8921 11.5557 20.0085 11.6636L20.2201 11.8597L20.0085 12.2208C19.8921 12.4194 19.7969 12.6215 19.7969 12.6699C19.7969 12.7182 19.8984 12.7606 20.0225 12.7641C20.1466 12.7676 20.3957 12.8153 20.5762 12.8702L20.9043 12.97L21.3555 12.3102C21.651 11.8781 21.868 11.6416 21.9845 11.625C22.0919 11.6097 22.2694 11.6953 22.4325 11.841L22.7025 12.0823L22.4941 12.3995C22.3794 12.574 22.221 12.8164 22.142 12.9381L21.9985 13.1594L22.6648 13.4945C23.0314 13.6788 23.3622 13.8104 23.3999 13.7871C23.4377 13.7637 23.6115 13.5229 23.7861 13.2519C23.9607 12.9809 24.1515 12.7589 24.2101 12.7585C24.2688 12.7581 24.4164 12.8097 24.5383 12.873C24.6601 12.9364 24.8456 13.0802 24.9505 13.1925C25.0751 13.3259 25.1101 13.416 25.0512 13.4524C25.0017 13.483 24.8144 13.7068 24.6349 13.9497C24.4555 14.1926 24.3086 14.4299 24.3086 14.4769C24.3086 14.524 24.3407 14.5625 24.3798 14.5625C24.419 14.5625 24.7011 14.7555 25.0066 14.9914L25.5622 15.4203L26.0315 14.8972L26.5008 14.3742L26.8813 14.7249C27.0905 14.9177 27.2617 15.112 27.2617 15.1565C27.2617 15.201 27.0694 15.4595 26.8343 15.7308L26.4069 16.2242L26.908 16.6853C27.1835 16.9389 27.6158 17.3961 27.8686 17.7013C28.1213 18.0064 28.3281 18.2915 28.3281 18.3348C28.3281 18.3781 28.1348 18.5438 27.8986 18.7029C27.6623 18.862 27.4316 18.992 27.3859 18.9917C27.3402 18.9915 27.1194 18.7239 26.8952 18.397C26.671 18.0702 26.3433 17.6458 26.167 17.4541C25.9906 17.2623 25.7929 17.1054 25.7276 17.1054C25.6623 17.1054 25.3921 17.3123 25.127 17.5652L24.645 18.0249L24.4124 17.8592C24.2844 17.7681 24.1296 17.6 24.0684 17.4856C23.9632 17.289 23.98 17.2513 24.379 16.7908C24.611 16.523 24.8008 16.2682 24.8008 16.2245C24.8008 16.1809 24.5428 15.9736 24.2276 15.764C23.9123 15.5543 23.6262 15.3829 23.5918 15.3829C23.5574 15.383 23.4275 15.5399 23.3031 15.7316C23.1786 15.9232 22.9851 16.1908 22.8729 16.3261L22.6689 16.5722L22.3677 16.4082C22.2021 16.3179 22.0279 16.1814 21.9807 16.1048C21.9123 15.9938 21.9756 15.8474 22.2922 15.3841C22.5107 15.0643 22.6754 14.7889 22.6582 14.7721C22.641 14.7553 22.3686 14.6092 22.0528 14.4474C21.7369 14.2855 21.4513 14.1529 21.4179 14.1527C21.3846 14.1525 21.2088 14.4476 21.0274 14.8086C20.8459 15.1695 20.656 15.4648 20.6055 15.4648C20.5549 15.4648 20.3892 15.388 20.2372 15.2941C20.0853 15.2001 19.961 15.0723 19.961 15.01C19.961 14.9477 20.0348 14.7094 20.125 14.4804C20.2153 14.2515 20.2891 14.0313 20.2891 13.9911C20.2891 13.9509 20.0892 13.8733 19.845 13.8186C19.6007 13.7639 19.345 13.7406 19.2768 13.7668C19.2086 13.793 19.0216 14.0908 18.8613 14.4286C18.701 14.7665 18.541 15.0607 18.5058 15.0825C18.4706 15.1042 18.3221 15.0717 18.176 15.0103C18.0298 14.9488 17.9102 14.8447 17.9102 14.7788C17.9102 14.713 17.9835 14.4251 18.0732 14.1391C18.1628 13.8531 18.2367 13.6099 18.2372 13.5986C18.2378 13.5873 18.1464 13.5781 18.034 13.5781C17.8852 13.5781 17.7518 13.684 17.543 13.9677C17.3853 14.1821 17.1769 14.5604 17.0798 14.8086C16.9827 15.0567 16.8878 15.4443 16.869 15.6699C16.8429 15.9808 16.8742 16.143 16.9982 16.3403C17.0882 16.4835 17.3602 16.7472 17.6028 16.9264C17.9677 17.1959 18.0677 17.3263 18.1826 17.6823C18.259 17.9189 18.3439 18.3025 18.3712 18.5347C18.4069 18.8385 18.3725 19.1287 18.2486 19.5693C18.1539 19.9061 17.9689 20.4604 17.8375 20.8012C17.706 21.142 17.5027 21.8987 17.3855 22.4829C17.2684 23.067 17.1148 24.0617 17.0443 24.6933C16.9738 25.325 16.9109 26.1563 16.9044 26.5407C16.8939 27.1686 16.9194 27.2967 17.1548 27.7997C17.3307 28.1756 17.5761 28.5155 17.9014 28.8339C18.168 29.0947 18.598 29.4117 18.857 29.5385C19.2239 29.718 19.4781 29.7768 20.0072 29.8045C20.545 29.8328 20.8115 29.8026 21.2875 29.6598C21.6182 29.5606 22.2763 29.2742 22.75 29.0232C23.2238 28.7723 23.7682 28.4596 23.96 28.3284C24.191 28.1703 24.3086 28.1273 24.3086 28.2011C24.3086 28.2623 24.1857 28.5132 24.0354 28.7587C23.8851 29.0042 23.6391 29.4081 23.4887 29.6562C23.3383 29.9044 23.1153 30.2551 22.9932 30.4355C22.871 30.616 22.6223 31.06 22.4406 31.4223C22.2588 31.7846 21.9768 32.4263 21.8138 32.8483C21.6508 33.2703 21.4444 33.9017 21.3551 34.2514C21.2659 34.6011 21.1518 35.2642 21.1016 35.7251C21.0515 36.186 21.036 36.7673 21.0672 37.0168C21.103 37.3036 21.2523 37.7202 21.4728 38.1487C21.6647 38.5216 22.0178 39.1166 22.2576 39.471C22.4973 39.8253 22.8708 40.34 23.0875 40.6148C23.3042 40.8895 23.7333 41.3518 24.041 41.6421C24.3813 41.9632 24.8564 42.3016 25.2543 42.5065C25.614 42.6917 26.0553 42.8903 26.235 42.9479C26.4148 43.0056 26.8577 43.0987 27.2194 43.1549C27.5811 43.2112 28.2687 43.2608 28.7474 43.2653ZM12.0791 41.7066C13.2334 41.7021 14.2691 41.673 14.3808 41.6419C14.5826 41.5857 14.5841 41.5782 14.6088 40.4627L14.6336 39.3401L14.3647 39.2194C14.2168 39.1531 14.0034 39.0449 13.8906 38.9792C13.7749 38.9116 13.2655 38.8222 12.7212 38.7738C12.1908 38.7267 11.6555 38.6397 11.5317 38.5805C11.318 38.4783 11.3054 38.4403 11.2825 37.8253C11.2685 37.4507 11.2944 37.1415 11.344 37.0919C11.3911 37.0448 11.4297 36.96 11.4297 36.9034C11.4297 36.8469 11.102 36.4754 10.7015 36.0779L9.97325 35.3552L9.92277 35.8895C9.895 36.1834 9.87202 37.5897 9.8717 39.0146C9.87138 40.4396 9.89572 41.6301 9.9258 41.6601C9.95588 41.6902 10.9249 41.7111 12.0791 41.7066ZM44.495 41.7148H46.4571V39.0618C46.4571 37.6027 46.4328 35.8493 46.4032 35.1654C46.3736 34.4814 46.3223 33.9218 46.2891 33.9218C46.256 33.9218 45.954 34.2633 45.6181 34.6806C45.2822 35.098 44.7696 35.6978 44.479 36.0136C44.1885 36.3295 43.6749 36.8485 43.3377 37.1671C43.0005 37.4857 42.6693 37.781 42.6016 37.8234C42.4966 37.889 42.4825 38.1809 42.5058 39.8076L42.533 41.7148H44.495ZM25.9947 40.0549C25.9208 40.1358 25.8404 40.0389 25.629 39.6142C25.4092 39.1725 25.3447 38.9207 25.2874 38.28C25.2486 37.8456 25.2155 37.1923 25.2139 36.8281L25.211 36.166L24.6744 36.2306C24.3793 36.2661 24.1025 36.3171 24.0592 36.3438C24.0159 36.3706 23.9802 36.5656 23.9797 36.7773C23.9793 36.9889 23.927 37.5805 23.8634 38.0919C23.7998 38.6033 23.7308 39.0387 23.71 39.0595C23.6892 39.0803 23.5564 38.8921 23.4149 38.6413C23.2733 38.3904 23.1027 37.975 23.0358 37.7179C22.9473 37.3781 22.9141 36.7901 22.9141 35.5613V33.872L23.1846 33.6098C23.3334 33.4656 23.5319 33.3476 23.6257 33.3476C23.7196 33.3476 23.8327 33.3938 23.8772 33.4502C23.9216 33.5066 23.9816 33.845 24.0104 34.2022C24.0392 34.5595 24.0773 34.8663 24.095 34.884C24.1127 34.9017 24.3491 34.8704 24.6204 34.8144L25.1135 34.7125L25.1417 33.6131L25.1699 32.5137L25.4378 32.2744C25.6 32.1296 25.7973 32.0351 25.9378 32.0351C26.0694 32.0351 26.2376 32.1098 26.3262 32.2076C26.4566 32.3515 26.487 32.5356 26.5102 33.3221C26.5374 34.2462 26.5414 34.2633 26.7187 34.2188C26.8181 34.1938 27.1102 34.1486 27.3677 34.1184L27.836 34.0633L27.8431 33.3979C27.8471 33.0319 27.8748 32.5583 27.9047 32.3454C27.9489 32.0305 28.0116 31.9197 28.2415 31.7507C28.3969 31.6364 28.6164 31.5429 28.7292 31.5429C28.8421 31.5429 29.0379 31.6421 29.1645 31.7634C29.3928 31.9821 29.3946 31.9916 29.3946 33.0222V34.0606L30.0121 34.1963C30.3518 34.2709 30.684 34.332 30.7504 34.332C30.85 34.332 30.8711 34.159 30.8711 33.3439C30.8711 32.4042 30.881 32.3459 31.0725 32.1544C31.1832 32.0437 31.3378 31.9531 31.416 31.9531C31.4942 31.9531 31.6808 32.0362 31.8307 32.1377C31.9997 32.2522 32.1338 32.4312 32.1839 32.6093C32.2284 32.7673 32.2649 33.311 32.2652 33.8177L32.2656 34.739L32.4912 34.7863C32.6153 34.8122 32.8516 34.8634 33.0163 34.9001C33.3032 34.9639 33.3179 34.9563 33.365 34.7211C33.392 34.5861 33.4141 34.3498 33.4141 34.1961C33.4141 34.0424 33.4676 33.7886 33.5329 33.6321C33.6117 33.4437 33.7065 33.3476 33.8138 33.3476C33.9028 33.3476 34.0938 33.447 34.238 33.5684L34.5003 33.7891L34.4614 35.7217C34.4259 37.4875 34.4062 37.6968 34.2338 38.1465C34.1299 38.4172 33.9911 38.7217 33.9252 38.8232C33.8593 38.9247 33.7727 39.0078 33.7328 39.0078C33.6928 39.0078 33.6602 38.9063 33.6602 38.7822C33.6602 38.6581 33.6048 38.2673 33.5371 37.9137C33.4694 37.56 33.4141 37.0784 33.4141 36.8434V36.4161L32.9014 36.3256C32.6194 36.2759 32.3246 36.2093 32.2463 36.1776C32.1144 36.1243 32.105 36.2155 32.1181 37.4204C32.1322 38.713 32.1308 38.7246 31.8659 39.3751C31.7193 39.735 31.5876 40.0413 31.5731 40.0558C31.5587 40.0702 31.4274 39.7204 31.2814 39.2783C31.0514 38.5819 31.0069 38.3049 30.9473 37.2031C30.9096 36.5038 30.877 35.9272 30.8749 35.9217C30.8728 35.9162 30.5666 35.8813 30.1944 35.8441C29.8221 35.8069 29.4807 35.7745 29.4356 35.772C29.3848 35.7693 29.3371 36.3931 29.3105 37.4082C29.2679 39.0356 29.2656 39.0524 29.0234 39.5C28.8892 39.7481 28.7251 39.9511 28.6589 39.9511C28.5927 39.9511 28.4297 39.7384 28.2968 39.4784C28.0648 39.0247 28.0516 38.9397 27.9723 37.3748L27.8897 35.744L27.2271 35.7883C26.8627 35.8126 26.5414 35.868 26.5132 35.9113C26.485 35.9546 26.4443 36.7152 26.4227 37.6015C26.3913 38.8914 26.3542 39.2865 26.2365 39.582C26.1556 39.785 26.0468 39.9978 25.9947 40.0549ZM14.4444 37.7771C14.5164 37.7773 14.5465 37.6128 14.5454 37.2236L14.5439 36.6699L13.9366 36.1162C13.6025 35.8116 13.3082 35.5625 13.2826 35.5625C13.257 35.5625 13.0973 35.7716 12.9276 36.0273C12.708 36.3581 12.6505 36.5025 12.7278 36.5283C12.7875 36.5483 13.1751 36.8374 13.5891 37.1708C14.0031 37.5042 14.388 37.777 14.4444 37.7771ZM42.3259 36.4648C42.3418 36.4648 42.6226 36.22 42.9499 35.9209C43.2772 35.6217 43.6105 35.2753 43.6906 35.151L43.8363 34.925L43.4331 34.5875C43.2114 34.4019 42.9785 34.25 42.9155 34.25C42.8525 34.25 42.7402 34.3515 42.6659 34.4756C42.5916 34.5996 42.3293 34.8989 42.0831 35.1406L41.6353 35.58L41.9662 36.0224C42.1482 36.2657 42.3101 36.4648 42.3259 36.4648ZM11.8441 35.4804C11.8869 35.4804 11.9219 35.4288 11.9219 35.3657C11.9219 35.3026 12.072 35.1624 12.2554 35.0541L12.5889 34.8571L12.0898 34.2613C11.8154 33.9336 11.5339 33.5786 11.4643 33.4724C11.3947 33.3662 11.2783 33.2565 11.2056 33.2286C11.1193 33.1955 10.9661 33.2826 10.7651 33.4788C10.5691 33.6703 10.41 33.7618 10.3281 33.7303C10.2379 33.6957 10.1992 33.7293 10.1992 33.8422C10.1992 33.9308 10.3377 34.1571 10.5069 34.345C10.676 34.5329 11.0286 34.8652 11.2904 35.0835C11.5522 35.3018 11.8013 35.4804 11.8441 35.4804ZM49.041 34.4332C49.5824 34.4101 50.0296 34.3871 50.0348 34.3821C50.04 34.3771 49.9982 34.0408 49.9419 33.6347C49.8857 33.2287 49.797 32.3981 49.7448 31.789C49.6927 31.18 49.5954 30.3125 49.5287 29.8613C49.4619 29.4101 49.3564 28.8749 49.2942 28.6719C49.2289 28.4589 49.1638 28.3548 49.1404 28.4258C49.1181 28.4934 48.9801 28.881 48.8339 29.2871C48.6876 29.6931 48.3983 30.376 48.1911 30.8047L47.8142 31.584L47.7867 32.992C47.7612 34.2962 47.7701 34.4028 47.9079 34.4376C47.9897 34.4583 48.4996 34.4563 49.041 34.4332ZM44.4195 34.1675C44.4493 34.1677 44.6985 33.9074 44.9732 33.5891C45.2479 33.2707 45.4727 32.9757 45.4727 32.9337C45.4727 32.8916 45.6573 32.6534 45.8828 32.4043C46.1519 32.1072 46.293 31.8786 46.293 31.7398C46.293 31.5975 46.1743 31.4129 45.9301 31.1756L45.5672 30.8229L45.1088 31.4905C44.8568 31.8577 44.5219 32.3243 44.3646 32.5273C44.2074 32.7303 43.9594 33.0195 43.8136 33.1698C43.5592 33.4319 43.555 33.4467 43.7107 33.532C43.8 33.5808 43.9838 33.7437 44.1192 33.8939C44.2545 34.0442 44.3897 34.1673 44.4195 34.1675ZM9.95736 33.1015C10.0002 33.1015 10.0352 33.072 10.0352 33.0359C10.0352 32.9997 10.1973 32.8677 10.3955 32.7425L10.7558 32.5147L10.3043 31.6392C10.0559 31.1576 9.84764 30.7574 9.84142 30.7497C9.83519 30.7421 9.84123 31.2681 9.85482 31.9187C9.86891 32.5925 9.91304 33.1015 9.95736 33.1015ZM8.41597 31.666C8.4549 31.2599 8.4697 30.3555 8.44885 29.6562C8.428 28.9569 8.34755 27.9233 8.27007 27.3594C8.15769 26.5413 8.13831 25.9773 8.17422 24.5703C8.2114 23.1134 8.25573 22.6331 8.42905 21.8092C8.54444 21.2606 8.76466 20.4277 8.91842 19.9583C9.07218 19.4889 9.38319 18.7358 9.60956 18.2847C9.83593 17.8336 10.1459 17.3007 10.2984 17.1004C10.4508 16.9002 10.6059 16.6868 10.6429 16.6264C10.6799 16.5659 10.5615 16.6149 10.3797 16.7352C10.1053 16.9168 9.97143 16.9503 9.59119 16.9327L9.13321 16.9115L8.7563 17.6852C8.549 18.1108 8.25037 18.7849 8.09268 19.1832C7.93499 19.5816 7.81843 19.9166 7.83366 19.9279C7.84889 19.9391 7.98179 19.9962 8.129 20.0548C8.2958 20.1212 8.41549 20.2365 8.44668 20.3607C8.4742 20.4704 8.47104 20.7887 8.43965 21.0681C8.40827 21.3475 8.33283 21.8145 8.272 22.1057C8.20731 22.4155 8.10116 22.6793 8.01622 22.7415C7.93635 22.7999 7.71579 22.8476 7.52608 22.8476H7.18114L7.12231 24.0245C7.08995 24.6717 7.08868 25.3161 7.11948 25.4563C7.15029 25.5965 7.23752 25.7287 7.31334 25.7499C7.38916 25.7711 7.5712 25.8127 7.71787 25.8422C7.9024 25.8793 7.9956 25.9507 8.02042 26.0739C8.04014 26.1718 8.07788 26.6441 8.10429 27.1234C8.13226 27.6312 8.11815 28.0846 8.07047 28.21C8.00958 28.3702 7.89544 28.4502 7.62425 28.5227L7.25984 28.6202L7.4656 29.1587C7.57876 29.4549 7.79346 30.0392 7.94271 30.4572C8.09196 30.8751 8.24357 31.4842 8.27962 31.8107L8.34517 32.4043L8.41597 31.666ZM46.8421 30.3945C46.9009 30.3945 47.0591 30.2192 47.1936 30.0049C47.3282 29.7906 47.4956 29.4122 47.5655 29.164C47.6354 28.9159 47.8022 28.4286 47.9362 28.0813C48.0701 27.7339 48.1797 27.3186 48.1797 27.1584V26.8672L47.7901 26.8683C47.5758 26.8689 47.3222 26.8904 47.2265 26.9161C47.093 26.9519 47.0121 27.102 46.8784 27.5623C46.7826 27.8921 46.5394 28.5553 46.338 29.0361L45.9717 29.9103L46.3535 30.1524C46.5635 30.2856 46.7833 30.3945 46.8421 30.3945ZM26.7795 29.8203C26.6087 29.8203 26.4736 29.7437 26.3177 29.5584C26.1359 29.3424 26.1058 29.2438 26.1457 28.9946C26.1722 28.8285 26.3455 28.3095 26.5307 27.8414C26.7159 27.3732 27.1004 26.5103 27.3852 25.9238C27.67 25.3373 28.0212 24.6812 28.1656 24.4658C28.31 24.2504 28.4962 24.0378 28.5792 23.9934C28.6988 23.9294 28.7739 23.9596 28.9398 24.1385C29.055 24.2627 29.2745 24.6045 29.4276 24.898C29.5806 25.1915 30.0004 26.0961 30.3604 26.9082C30.7203 27.7203 31.075 28.5621 31.1486 28.7788C31.244 29.0598 31.2588 29.2168 31.2003 29.3262C31.1552 29.4105 31.0208 29.5561 30.9016 29.6499C30.7824 29.7436 30.5641 29.8203 30.4163 29.8203C30.2245 29.8203 30.0339 29.7271 29.7506 29.4946C29.5322 29.3154 29.2023 29.0385 29.0174 28.879L28.6813 28.5892L28.1151 29.0923C27.8036 29.369 27.4301 29.646 27.2849 29.7078C27.1397 29.7697 26.9123 29.8203 26.7795 29.8203ZM21.1914 26.9424C20.9884 26.9402 20.6278 26.886 20.39 26.822C20.1522 26.758 19.8532 26.6516 19.7254 26.5855C19.5977 26.5194 19.3814 26.3382 19.2449 26.1827C19.1084 26.0272 18.932 25.7305 18.8529 25.5233C18.7324 25.208 18.716 24.9695 18.7517 24.0587C18.7837 23.2417 18.8376 22.8497 18.9679 22.4851C19.0633 22.2181 19.2526 21.8262 19.3885 21.6144C19.5244 21.4026 19.8553 21.0198 20.1239 20.7636C20.4054 20.4951 20.8127 20.2092 21.0857 20.0884C21.3462 19.9732 21.8305 19.8271 22.1619 19.7637C22.4933 19.7003 23.0128 19.6484 23.3164 19.6484C23.62 19.6484 24.0874 19.6873 24.3551 19.7349C24.6228 19.7825 25.0897 19.9145 25.3928 20.0282C25.6958 20.1418 26.2554 20.4368 26.6364 20.6835C27.0173 20.9303 27.3483 21.1826 27.372 21.2442C27.3956 21.3057 27.3638 21.5499 27.3013 21.7867C27.2388 22.0235 27.0419 22.5213 26.8636 22.8929C26.6853 23.2644 26.3269 23.8717 26.0671 24.2425C25.8044 24.6173 25.3672 25.1037 25.0822 25.3381C24.8003 25.57 24.3643 25.8836 24.1133 26.0349C23.8624 26.1863 23.4322 26.401 23.1573 26.512C22.8824 26.623 22.4107 26.7662 22.109 26.8301C21.8074 26.894 21.3945 26.9446 21.1914 26.9424ZM36.1286 26.9447C35.8312 26.9422 35.3167 26.8691 34.9852 26.7823C34.6536 26.6954 34.0384 26.4537 33.618 26.245C33.1975 26.0363 32.6289 25.6757 32.3543 25.4435C32.0797 25.2114 31.6613 24.7741 31.4246 24.4717C31.1879 24.1694 30.8162 23.6092 30.5987 23.2269C30.3812 22.8446 30.1509 22.3353 30.087 22.095C30.023 21.8547 29.9703 21.56 29.9697 21.4399C29.9689 21.2538 30.0783 21.1526 30.713 20.7521C31.1223 20.4938 31.7291 20.1769 32.0615 20.0479C32.3938 19.9188 32.9172 19.7769 33.2245 19.7324C33.5318 19.688 34.0047 19.6516 34.2754 19.6515C34.5461 19.6514 35.0251 19.7058 35.3398 19.7725C35.6546 19.8391 36.116 19.9954 36.3652 20.1197C36.6222 20.2478 37.067 20.5942 37.3926 20.9199C37.7404 21.2677 38.0558 21.678 38.1924 21.9606C38.3164 22.2171 38.4756 22.6757 38.5461 22.9798C38.6166 23.2838 38.6792 23.8675 38.6852 24.277C38.6915 24.7149 38.6504 25.1566 38.5852 25.3496C38.5243 25.5301 38.385 25.8131 38.2756 25.9787C38.1663 26.1442 37.9357 26.3774 37.7632 26.497C37.5907 26.6165 37.274 26.7672 37.0594 26.8318C36.8448 26.8964 36.426 26.9472 36.1286 26.9447ZM54.8884 26.6979C54.4245 26.695 53.9619 26.6593 53.8604 26.6185C53.707 26.5569 53.6758 26.4814 53.6758 26.1719C53.6758 25.9671 53.5998 25.258 53.5069 24.5963C53.414 23.9345 53.2108 22.901 53.0553 22.2997C52.8998 21.6983 52.6577 20.8465 52.5173 20.4068C52.3769 19.9671 52.1153 19.2383 51.9361 18.7871C51.7569 18.3359 51.3892 17.5331 51.119 17.003C50.8488 16.4729 50.376 15.6212 50.0684 15.1103C49.7607 14.5995 49.2222 13.7781 48.8716 13.2851C48.5211 12.792 48.0301 12.1302 47.7806 11.8144C47.531 11.4986 46.8266 10.7403 46.2152 10.1294C45.6038 9.5184 44.7075 8.71369 44.2234 8.34111C43.7393 7.96854 42.9456 7.41416 42.4597 7.10915C41.9738 6.80415 41.2255 6.36592 40.7969 6.1353C40.3683 5.90468 39.4454 5.4787 38.7461 5.18869C38.0468 4.89867 37.1793 4.56436 36.8184 4.44578C36.4574 4.32719 35.7007 4.11974 35.1367 3.98476C34.5728 3.84979 33.6684 3.66528 33.127 3.57474C32.5856 3.4842 31.7365 3.36765 31.2403 3.31573C30.744 3.26382 29.5254 3.22321 28.5323 3.22549C27.5392 3.22776 26.3395 3.27103 25.8663 3.32165C25.3931 3.37227 24.6737 3.46937 24.2676 3.53743C23.8615 3.6055 23.1469 3.75435 22.6795 3.86822C22.2121 3.98209 21.2708 4.26053 20.5877 4.48697C19.9046 4.71341 18.6587 5.22131 17.819 5.61563C16.9793 6.00996 15.8949 6.56932 15.4091 6.85866C14.9233 7.148 14.1153 7.69455 13.6135 8.07321C13.1117 8.45186 12.3394 9.07566 11.8972 9.45943C11.455 9.8432 10.6614 10.6219 10.1335 11.1899C9.60571 11.7578 9.01871 12.3799 8.82909 12.5722C8.63948 12.7645 8.44987 12.9218 8.40775 12.9218C8.36563 12.9218 8.15163 12.7447 7.9322 12.5282C7.71276 12.3117 7.34321 11.9128 7.11098 11.6416C6.75603 11.2273 6.70245 11.1233 6.77481 10.9894C6.82215 10.9018 7.12259 10.5163 7.44245 10.1328C7.76231 9.74929 8.48605 8.97409 9.05077 8.41013C9.61548 7.84617 10.4481 7.08723 10.901 6.72361C11.3539 6.35999 12.0919 5.80045 12.541 5.48018C12.99 5.15991 13.6897 4.70577 14.0957 4.47098C14.5018 4.23619 15.3741 3.77233 16.0342 3.44018C16.6943 3.10803 17.691 2.65448 18.2491 2.4323C18.8071 2.21011 19.7877 1.86025 20.4282 1.65483C21.0686 1.44941 22.2578 1.15023 23.0707 0.989992C23.8837 0.829752 25.0024 0.646873 25.5567 0.583593C26.1661 0.514025 27.359 0.469956 28.5742 0.472122C29.6796 0.474093 31.0454 0.5251 31.6094 0.585472C32.1734 0.645844 33.0039 0.754155 33.4551 0.826164C33.9063 0.898172 34.6446 1.03085 35.0957 1.12101C35.5469 1.21117 36.3513 1.41224 36.8833 1.56784C37.4152 1.72343 38.3601 2.05201 38.9829 2.298C39.6058 2.54399 40.4666 2.90935 40.8958 3.10991C41.325 3.31047 42.1151 3.72332 42.6516 4.02735C43.1881 4.33138 44.0146 4.8485 44.4883 5.1765C44.962 5.50451 45.7372 6.09275 46.211 6.48372C46.6847 6.87468 47.3831 7.47729 47.7629 7.82285C48.1427 8.16841 48.7709 8.82029 49.1588 9.27146C49.5467 9.72263 50.0907 10.3895 50.3676 10.7534C50.6445 11.1173 51.2098 11.9242 51.6239 12.5465C52.0379 13.1688 52.5438 13.9601 52.7481 14.3048C52.9523 14.6496 53.3501 15.393 53.6321 15.957C53.9141 16.521 54.3315 17.4438 54.5597 18.0078C54.788 18.5718 55.1447 19.5813 55.3525 20.2512C55.5603 20.9211 55.8384 22.01 55.9704 22.6711C56.1025 23.3322 56.2559 24.3921 56.3114 25.0264C56.3669 25.6608 56.3877 26.2439 56.3577 26.3221C56.3277 26.4004 56.1746 26.5181 56.0175 26.5838C55.8268 26.6634 55.4516 26.7014 54.8884 26.6979ZM47.9328 25.8545C48.3114 25.8438 48.3881 25.8158 48.4142 25.679C48.4313 25.5895 48.4021 25.2749 48.3494 24.98C48.2967 24.685 48.2244 24.3965 48.1888 24.3389C48.1371 24.2552 48.0226 24.2624 47.6187 24.3746C47.1656 24.5006 47.1134 24.5371 47.114 24.7273C47.1144 24.844 47.1378 25.1315 47.166 25.3662C47.2011 25.6587 47.259 25.8046 47.3499 25.8301C47.4228 25.8506 47.6851 25.8615 47.9328 25.8545ZM34.226 24.4061C34.3885 24.406 34.6481 24.3414 34.8028 24.2625C34.9575 24.1837 35.1553 24.0218 35.2425 23.9029C35.3296 23.784 35.42 23.517 35.4434 23.3095C35.4677 23.0936 35.442 22.8265 35.3832 22.6845C35.3268 22.5482 35.1567 22.328 35.0053 22.195C34.854 22.0621 34.6004 21.929 34.4419 21.8993C34.2249 21.8586 34.0582 21.8931 33.7676 22.0388C33.5553 22.1453 33.311 22.3297 33.2248 22.4486C33.1385 22.5675 33.052 22.8259 33.0326 23.0228C33.0059 23.2932 33.0435 23.4605 33.1864 23.7065C33.2904 23.8857 33.5004 24.1164 33.653 24.2192C33.8145 24.328 34.0541 24.4062 34.226 24.4061ZM22.9141 24.3219C23.072 24.3227 23.3487 24.2823 23.529 24.2323C23.7239 24.1782 23.9985 23.9997 24.2058 23.7923C24.5016 23.4965 24.5547 23.3928 24.5547 23.1108C24.5547 22.8689 24.4941 22.7062 24.3325 22.5141C24.2103 22.3689 23.9611 22.1823 23.7788 22.0995C23.5965 22.0167 23.3181 21.9483 23.1602 21.9475C23.0023 21.9468 22.7262 21.987 22.5468 22.0368C22.3669 22.0867 22.084 22.2638 21.9164 22.4315C21.7491 22.5988 21.5874 22.8347 21.557 22.9557C21.5266 23.0767 21.5234 23.262 21.5499 23.3675C21.5764 23.473 21.679 23.6622 21.7779 23.788C21.8769 23.9138 22.1084 24.0851 22.2924 24.1686C22.4764 24.2522 22.7562 24.3212 22.9141 24.3219ZM46.9481 23.5859C46.9907 23.5859 47.1561 23.4713 47.3155 23.3313C47.4876 23.1803 47.6055 23.001 47.6055 22.8905C47.6055 22.788 47.5487 22.5427 47.4793 22.3452C47.4098 22.1478 47.2619 21.8483 47.1506 21.6796L46.9481 21.3729L46.6411 21.487C46.4722 21.5498 46.2718 21.6211 46.1958 21.6455C46.0716 21.6854 46.0817 21.7522 46.2953 22.307C46.426 22.6464 46.6089 23.073 46.7017 23.255C46.7946 23.437 46.9054 23.5859 46.9481 23.5859ZM46.7399 16.4086C46.5512 16.4427 46.4139 16.3898 46.1153 16.1678C45.9047 16.0114 45.7074 15.8044 45.6768 15.708C45.6462 15.6115 45.6437 15.4125 45.6712 15.2657C45.6988 15.119 45.8038 14.9216 45.9046 14.8272C46.0054 14.7327 46.1918 14.6161 46.3188 14.5679C46.4459 14.5198 46.6489 14.4806 46.77 14.4807C46.8912 14.4809 47.1022 14.5493 47.2389 14.6327C47.3757 14.7161 47.5564 14.9368 47.6404 15.1232L47.7932 15.462L47.5765 15.7896C47.4572 15.9697 47.2747 16.1728 47.1707 16.2409C47.0667 16.309 46.8729 16.3845 46.7399 16.4086ZM11.4552 15.3799C11.5144 15.3138 11.8253 14.946 12.1461 14.5625C12.4669 14.179 13.0414 13.5917 13.4226 13.2575C13.8039 12.9232 14.2372 12.587 14.3855 12.5103L14.6552 12.3708L14.3454 12.3127C14.175 12.2807 13.8076 12.279 13.5289 12.3089C13.0357 12.3617 13.0023 12.3811 12.2835 13.0321C11.8773 13.4001 11.3843 13.8445 11.1879 14.0197C10.8366 14.3331 10.8336 14.3403 10.9977 14.4708C11.0894 14.5438 11.2056 14.6841 11.256 14.7827C11.3064 14.8812 11.3477 15.0829 11.3477 15.2309C11.3477 15.4592 11.364 15.4818 11.4552 15.3799ZM18.6969 12.6627C18.7819 12.6463 18.938 12.4672 19.0439 12.2647L19.2366 11.8965L19.0285 12.122C18.914 12.2461 18.7817 12.3476 18.7344 12.3476C18.6871 12.3476 18.6485 12.3631 18.6485 12.3819C18.6485 12.4008 18.6246 12.4784 18.5955 12.5543C18.5556 12.6582 18.5807 12.685 18.6969 12.6627Z" fill="#E5484D"/>
</svg>
