<?xml version="1.0" encoding="utf-8"?>
<!-- Generated by Mocodo 4.2.8 -->
<svg width="771" height="542" viewBox="0 0 771 542" xmlns="http://www.w3.org/2000/svg">
<rect x="0" y="0" width="771" height="542" fill="#ffffbf" stroke="none" stroke-width="0"/>

<!-- Association ECRIRE -->
<g>
	<line x1="58" y1="43" x2="166" y2="43" stroke="#f46d43" stroke-width="2"/>
	<line x1="166" y1="178" x2="166" y2="43" stroke="#f46d43" stroke-width="2"/>
	<g>
		<path d="M177 18 a14 14 90 0 1 14 14 V43 h-50 V32 a14 14 90 0 1 14 -14" fill="#fdae61" stroke="#fdae61" stroke-width="0"/>
		<path d="M191 43 v11 a14 14 90 0 1 -14 14 H155 a14 14 90 0 1 -14 -14 V43 H50" fill="#fee08b" stroke="#fee08b" stroke-width="0"/>
		<rect x="141" y="18" width="50" height="50" fill="none" rx="14" stroke="#f46d43" stroke-width="2"/>
		<line x1="141" y1="43" x2="191" y2="43" stroke="#f46d43" stroke-width="1"/>
		<text x="149" y="35.75" fill="#000000" font-family="Verdana" font-size="12">ecrire</text>
	</g>
	<text x="112" y="60" fill="#3288bd" font-family="Verdana" font-size="12">1,1</text>
	<text x="171" y="94" fill="#3288bd" font-family="Verdana" font-size="12">0,N</text>
</g>

<!-- Association FAIRE -->
<g>
	<line x1="166" y1="178" x2="275" y2="178" stroke="#f46d43" stroke-width="2"/>
	<line x1="391" y1="279" x2="275" y2="178" stroke="#f46d43" stroke-width="2"/>
	<g>
		<path d="M282 153 a14 14 90 0 1 14 14 V178 h-42 V167 a14 14 90 0 1 14 -14" fill="#fdae61" stroke="#fdae61" stroke-width="0"/>
		<path d="M296 178 v11 a14 14 90 0 1 -14 14 H268 a14 14 90 0 1 -14 -14 V178 H42" fill="#fee08b" stroke="#fee08b" stroke-width="0"/>
		<rect x="254" y="153" width="42" height="50" fill="none" rx="14" stroke="#f46d43" stroke-width="2"/>
		<line x1="254" y1="178" x2="296" y2="178" stroke="#f46d43" stroke-width="1"/>
		<text x="261" y="170.75" fill="#000000" font-family="Verdana" font-size="12">faire</text>
	</g>
	<text x="225" y="195" fill="#3288bd" font-family="Verdana" font-size="12">O,N</text>
	<text x="306" y="238.25" fill="#3288bd" font-family="Verdana" font-size="12">1,1</text>
</g>

<!-- Association CONTENIR -->
<g>
	<line x1="391" y1="279" x2="516" y2="279" stroke="#f46d43" stroke-width="2"/>
	<line x1="621" y1="279" x2="516" y2="279" stroke="#f46d43" stroke-width="2"/>
	<g>
		<path d="M534 254 a14 14 90 0 1 14 14 V279 h-64 V268 a14 14 90 0 1 14 -14" fill="#fdae61" stroke="#fdae61" stroke-width="0"/>
		<path d="M548 279 v11 a14 14 90 0 1 -14 14 H498 a14 14 90 0 1 -14 -14 V279 H64" fill="#fee08b" stroke="#fee08b" stroke-width="0"/>
		<rect x="484" y="254" width="64" height="50" fill="none" rx="14" stroke="#f46d43" stroke-width="2"/>
		<line x1="484" y1="279" x2="548" y2="279" stroke="#f46d43" stroke-width="1"/>
		<text x="491" y="271.75" fill="#000000" font-family="Verdana" font-size="12">contenir</text>
	</g>
	<text x="455" y="296" fill="#3288bd" font-family="Verdana" font-size="12">1,N</text>
	<text x="555" y="296" fill="#3288bd" font-family="Verdana" font-size="12">0,N</text>
</g>

<!-- Association DETENIR -->
<g>
	<line x1="275" y1="465" x2="391" y2="465" stroke="#f46d43" stroke-width="2"/>
	<line x1="516" y1="465" x2="391" y2="465" stroke="#f46d43" stroke-width="2"/>
	<g>
		<path d="M406 440 a14 14 90 0 1 14 14 V465 h-58 V454 a14 14 90 0 1 14 -14" fill="#fdae61" stroke="#fdae61" stroke-width="0"/>
		<path d="M420 465 v11 a14 14 90 0 1 -14 14 H376 a14 14 90 0 1 -14 -14 V465 H58" fill="#fee08b" stroke="#fee08b" stroke-width="0"/>
		<rect x="362" y="440" width="58" height="50" fill="none" rx="14" stroke="#f46d43" stroke-width="2"/>
		<line x1="362" y1="465" x2="420" y2="465" stroke="#f46d43" stroke-width="1"/>
		<text x="369" y="457.75" fill="#000000" font-family="Verdana" font-size="12">detenir</text>
	</g>
	<text x="333" y="482" fill="#3288bd" font-family="Verdana" font-size="12">0,N</text>
	<text x="437" y="482" fill="#3288bd" font-family="Verdana" font-size="12">1,1</text>
</g>

<!-- Entity MESSAGE -->
<g>
	<g>
		<rect x="9" y="9" width="98" height="25" fill="#abdda4" stroke="none" stroke-width="0" opacity="1"/>
		<rect x="9" y="34" width="98" height="43" fill="#e6f598" stroke="none" stroke-width="0" opacity="1"/>
		<rect x="9" y="9" width="98" height="68" fill="none" stroke="#66c2a5" stroke-width="2" opacity="1"/>
		<line x1="9" y1="34" x2="107" y2="34" stroke="#66c2a5" stroke-width="1"/>
	</g>
	<text x="31" y="26.75" fill="#000000" font-family="Verdana" font-size="12">message</text>
	<text x="14" y="51.8" fill="#000000" font-family="Verdana" font-size="12">code_Message</text>
	<line x1="14" y1="54" x2="102" y2="54" stroke="#000000" stroke-width="1"/>
	<text x="14" y="68.8" fill="#000000" font-family="Verdana" font-size="12">contenu</text>
</g>

<!-- Entity UTILISATEUR -->
<g>
	<g>
		<rect x="112" y="102" width="108" height="25" fill="#abdda4" stroke="none" stroke-width="0" opacity="1"/>
		<rect x="112" y="127" width="108" height="127" fill="#e6f598" stroke="none" stroke-width="0" opacity="1"/>
		<rect x="112" y="102" width="108" height="152" fill="none" stroke="#66c2a5" stroke-width="2" opacity="1"/>
		<line x1="112" y1="127" x2="220" y2="127" stroke="#66c2a5" stroke-width="1"/>
	</g>
	<text x="136" y="119.75" fill="#000000" font-family="Verdana" font-size="12">utilisateur</text>
	<text x="117" y="144.8" fill="#000000" font-family="Verdana" font-size="12">code_Utilisateur</text>
	<line x1="117" y1="147" x2="215" y2="147" stroke="#000000" stroke-width="1"/>
	<text x="117" y="161.8" fill="#000000" font-family="Verdana" font-size="12">nom</text>
	<text x="117" y="178.8" fill="#000000" font-family="Verdana" font-size="12">prénom</text>
	<text x="117" y="195.8" fill="#000000" font-family="Verdana" font-size="12">date_Naissance</text>
	<text x="117" y="212.8" fill="#000000" font-family="Verdana" font-size="12">courriel</text>
	<text x="117" y="229.8" fill="#000000" font-family="Verdana" font-size="12">mot_De_Passe</text>
	<text x="117" y="246.8" fill="#000000" font-family="Verdana" font-size="12">role</text>
</g>

<!-- Entity RESERVATION -->
<g>
	<g>
		<rect x="332" y="211" width="118" height="25" fill="#abdda4" stroke="none" stroke-width="0" opacity="1"/>
		<rect x="332" y="236" width="118" height="111" fill="#e6f598" stroke="none" stroke-width="0" opacity="1"/>
		<rect x="332" y="211" width="118" height="136" fill="none" stroke="#66c2a5" stroke-width="2" opacity="1"/>
		<line x1="332" y1="236" x2="450" y2="236" stroke="#66c2a5" stroke-width="1"/>
	</g>
	<text x="357" y="228.75" fill="#000000" font-family="Verdana" font-size="12">reservation</text>
	<text x="337" y="253.8" fill="#000000" font-family="Verdana" font-size="12">code_Réservation</text>
	<line x1="337" y1="256" x2="445" y2="256" stroke="#000000" stroke-width="1"/>
	<text x="337" y="270.8" fill="#000000" font-family="Verdana" font-size="12">date_Visite</text>
	<text x="337" y="287.8" fill="#000000" font-family="Verdana" font-size="12">statut</text>
	<text x="337" y="304.8" fill="#000000" font-family="Verdana" font-size="12">qrcode</text>
	<text x="337" y="321.8" fill="#000000" font-family="Verdana" font-size="12">quantité_Billet</text>
	<text x="337" y="338.8" fill="#000000" font-family="Verdana" font-size="12">prix_Total</text>
</g>

<!-- Entity BILLET -->
<g>
	<g>
		<rect x="582" y="228" width="78" height="25" fill="#abdda4" stroke="none" stroke-width="0" opacity="1"/>
		<rect x="582" y="253" width="78" height="77" fill="#e6f598" stroke="none" stroke-width="0" opacity="1"/>
		<rect x="582" y="228" width="78" height="102" fill="none" stroke="#66c2a5" stroke-width="2" opacity="1"/>
		<line x1="582" y1="253" x2="660" y2="253" stroke="#66c2a5" stroke-width="1"/>
	</g>
	<text x="606" y="245.75" fill="#000000" font-family="Verdana" font-size="12">billet</text>
	<text x="587" y="270.8" fill="#000000" font-family="Verdana" font-size="12">code_Billet</text>
	<line x1="587" y1="273" x2="654" y2="273" stroke="#000000" stroke-width="1"/>
	<text x="587" y="287.8" fill="#000000" font-family="Verdana" font-size="12">nom</text>
	<text x="587" y="304.8" fill="#000000" font-family="Verdana" font-size="12">prix</text>
	<text x="587" y="321.8" fill="#000000" font-family="Verdana" font-size="12">description</text>
</g>

<!-- Entity CATEGORIE -->
<g>
	<g>
		<rect x="222" y="423" width="106" height="25" fill="#abdda4" stroke="none" stroke-width="0" opacity="1"/>
		<rect x="222" y="448" width="106" height="59" fill="#e6f598" stroke="none" stroke-width="0" opacity="1"/>
		<rect x="222" y="423" width="106" height="84" fill="none" stroke="#66c2a5" stroke-width="2" opacity="1"/>
		<line x1="222" y1="448" x2="328" y2="448" stroke="#66c2a5" stroke-width="1"/>
	</g>
	<text x="247" y="440.75" fill="#000000" font-family="Verdana" font-size="12">categorie</text>
	<text x="227" y="465.8" fill="#000000" font-family="Verdana" font-size="12">code_Catégorie</text>
	<line x1="227" y1="468" x2="322" y2="468" stroke="#000000" stroke-width="1"/>
	<text x="227" y="482.8" fill="#000000" font-family="Verdana" font-size="12">nom</text>
	<text x="227" y="499.8" fill="#000000" font-family="Verdana" font-size="12">description</text>
</g>

<!-- Entity ATTRACTION -->
<g>
	<g>
		<rect x="463" y="397" width="106" height="25" fill="#abdda4" stroke="none" stroke-width="0" opacity="1"/>
		<rect x="463" y="422" width="106" height="111" fill="#e6f598" stroke="none" stroke-width="0" opacity="1"/>
		<rect x="463" y="397" width="106" height="136" fill="none" stroke="#66c2a5" stroke-width="2" opacity="1"/>
		<line x1="463" y1="422" x2="569" y2="422" stroke="#66c2a5" stroke-width="1"/>
	</g>
	<text x="487" y="414.75" fill="#000000" font-family="Verdana" font-size="12">attraction</text>
	<text x="468" y="439.8" fill="#000000" font-family="Verdana" font-size="12">code_Attraction</text>
	<line x1="468" y1="442" x2="564" y2="442" stroke="#000000" stroke-width="1"/>
	<text x="468" y="456.8" fill="#000000" font-family="Verdana" font-size="12">nom</text>
	<text x="468" y="473.8" fill="#000000" font-family="Verdana" font-size="12">description</text>
	<text x="468" y="490.8" fill="#000000" font-family="Verdana" font-size="12">image_Url</text>
	<text x="468" y="507.8" fill="#000000" font-family="Verdana" font-size="12">taille_Min</text>
	<text x="468" y="524.8" fill="#000000" font-family="Verdana" font-size="12">taille_Max</text>
</g>
</svg>