<?xml version="1.0" encoding="utf-8"?>
<!-- Generated by Mocodo 4.2.8 -->
<svg width="791" height="567" viewBox="0 0 791 567" xmlns="http://www.w3.org/2000/svg">
<rect x="0" y="0" width="791" height="567" fill="#ffffbf" stroke="none" stroke-width="0"/>

<!-- Association ECRIRE -->
<g>
	<line x1="58" y1="68" x2="166" y2="68" stroke="#f46d43" stroke-width="2"/>
	<line x1="166" y1="220" x2="166" y2="68" stroke="#f46d43" stroke-width="2"/>
	<g>
		<path d="M177 43 a14 14 90 0 1 14 14 V68 h-50 V57 a14 14 90 0 1 14 -14" fill="#fdae61" stroke="#fdae61" stroke-width="0"/>
		<path d="M191 68 v11 a14 14 90 0 1 -14 14 H155 a14 14 90 0 1 -14 -14 V68 H50" fill="#fee08b" stroke="#fee08b" stroke-width="0"/>
		<rect x="141" y="43" width="50" height="50" fill="none" rx="14" stroke="#f46d43" stroke-width="2"/>
		<line x1="141" y1="68" x2="191" y2="68" stroke="#f46d43" stroke-width="1"/>
		<text x="149" y="60.75" fill="#000000" font-family="Verdana" font-size="12">ecrire</text>
	</g>
	<text x="112" y="85" fill="#3288bd" font-family="Verdana" font-size="12">1,1</text>
	<text x="171" y="144" fill="#3288bd" font-family="Verdana" font-size="12">0,N</text>
</g>

<!-- Association FAIRE -->
<g>
	<line x1="166" y1="220" x2="275" y2="220" stroke="#f46d43" stroke-width="2"/>
	<line x1="391" y1="313" x2="275" y2="220" stroke="#f46d43" stroke-width="2"/>
	<g>
		<path d="M282 195 a14 14 90 0 1 14 14 V220 h-42 V209 a14 14 90 0 1 14 -14" fill="#fdae61" stroke="#fdae61" stroke-width="0"/>
		<path d="M296 220 v11 a14 14 90 0 1 -14 14 H268 a14 14 90 0 1 -14 -14 V220 H42" fill="#fee08b" stroke="#fee08b" stroke-width="0"/>
		<rect x="254" y="195" width="42" height="50" fill="none" rx="14" stroke="#f46d43" stroke-width="2"/>
		<line x1="254" y1="220" x2="296" y2="220" stroke="#f46d43" stroke-width="1"/>
		<text x="261" y="212.75" fill="#000000" font-family="Verdana" font-size="12">faire</text>
	</g>
	<text x="225" y="237" fill="#3288bd" font-family="Verdana" font-size="12">O,N</text>
	<text x="306" y="276.72" fill="#3288bd" font-family="Verdana" font-size="12">1,1</text>
</g>

<!-- Association CONTENIR -->
<g>
	<line x1="391" y1="313" x2="516" y2="313" stroke="#f46d43" stroke-width="2"/>
	<line x1="631" y1="313" x2="516" y2="313" stroke="#f46d43" stroke-width="2"/>
	<g>
		<path d="M534 288 a14 14 90 0 1 14 14 V313 h-64 V302 a14 14 90 0 1 14 -14" fill="#fdae61" stroke="#fdae61" stroke-width="0"/>
		<path d="M548 313 v11 a14 14 90 0 1 -14 14 H498 a14 14 90 0 1 -14 -14 V313 H64" fill="#fee08b" stroke="#fee08b" stroke-width="0"/>
		<rect x="484" y="288" width="64" height="50" fill="none" rx="14" stroke="#f46d43" stroke-width="2"/>
		<line x1="484" y1="313" x2="548" y2="313" stroke="#f46d43" stroke-width="1"/>
		<text x="491" y="305.75" fill="#000000" font-family="Verdana" font-size="12">contenir</text>
	</g>
	<text x="455" y="330" fill="#3288bd" font-family="Verdana" font-size="12">1,N</text>
	<text x="555" y="330" fill="#3288bd" font-family="Verdana" font-size="12">0,N</text>
</g>

<!-- Association DETENIR -->
<g>
	<line x1="275" y1="490" x2="391" y2="490" stroke="#f46d43" stroke-width="2"/>
	<line x1="516" y1="490" x2="391" y2="490" stroke="#f46d43" stroke-width="2"/>
	<g>
		<path d="M406 465 a14 14 90 0 1 14 14 V490 h-58 V479 a14 14 90 0 1 14 -14" fill="#fdae61" stroke="#fdae61" stroke-width="0"/>
		<path d="M420 490 v11 a14 14 90 0 1 -14 14 H376 a14 14 90 0 1 -14 -14 V490 H58" fill="#fee08b" stroke="#fee08b" stroke-width="0"/>
		<rect x="362" y="465" width="58" height="50" fill="none" rx="14" stroke="#f46d43" stroke-width="2"/>
		<line x1="362" y1="490" x2="420" y2="490" stroke="#f46d43" stroke-width="1"/>
		<text x="369" y="482.75" fill="#000000" font-family="Verdana" font-size="12">detenir</text>
	</g>
	<text x="333" y="507" fill="#3288bd" font-family="Verdana" font-size="12">0,N</text>
	<text x="437" y="507" fill="#3288bd" font-family="Verdana" font-size="12">1,1</text>
</g>

<!-- Entity MESSAGE -->
<g>
	<g>
		<rect x="9" y="9" width="98" height="25" fill="#abdda4" stroke="none" stroke-width="0" opacity="1"/>
		<rect x="9" y="34" width="98" height="93" fill="#e6f598" stroke="none" stroke-width="0" opacity="1"/>
		<rect x="9" y="9" width="98" height="118" fill="none" stroke="#66c2a5" stroke-width="2" opacity="1"/>
		<line x1="9" y1="34" x2="107" y2="34" stroke="#66c2a5" stroke-width="1"/>
	</g>
	<text x="31" y="26.75" fill="#000000" font-family="Verdana" font-size="12">message</text>
	<text x="14" y="51.8" fill="#000000" font-family="Verdana" font-size="12">code_Message</text>
	<line x1="14" y1="54" x2="102" y2="54" stroke="#000000" stroke-width="1"/>
	<text x="14" y="68.8" fill="#000000" font-family="Verdana" font-size="12">nom</text>
	<text x="14" y="85.8" fill="#000000" font-family="Verdana" font-size="12">prenom</text>
	<text x="14" y="102.8" fill="#000000" font-family="Verdana" font-size="12">courriel</text>
	<text x="14" y="119.8" fill="#000000" font-family="Verdana" font-size="12">contenu</text>
</g>

<!-- Entity UTILISATEUR -->
<g>
	<g>
		<rect x="112" y="152" width="108" height="25" fill="#abdda4" stroke="none" stroke-width="0" opacity="1"/>
		<rect x="112" y="177" width="108" height="111" fill="#e6f598" stroke="none" stroke-width="0" opacity="1"/>
		<rect x="112" y="152" width="108" height="136" fill="none" stroke="#66c2a5" stroke-width="2" opacity="1"/>
		<line x1="112" y1="177" x2="220" y2="177" stroke="#66c2a5" stroke-width="1"/>
	</g>
	<text x="136" y="169.75" fill="#000000" font-family="Verdana" font-size="12">utilisateur</text>
	<text x="117" y="194.8" fill="#000000" font-family="Verdana" font-size="12">code_Utilisateur</text>
	<line x1="117" y1="197" x2="215" y2="197" stroke="#000000" stroke-width="1"/>
	<text x="117" y="211.8" fill="#000000" font-family="Verdana" font-size="12">nom</text>
	<text x="117" y="228.8" fill="#000000" font-family="Verdana" font-size="12">prénom</text>
	<text x="117" y="245.8" fill="#000000" font-family="Verdana" font-size="12">courriel</text>
	<text x="117" y="262.8" fill="#000000" font-family="Verdana" font-size="12">mot_De_Passe</text>
	<text x="117" y="279.8" fill="#000000" font-family="Verdana" font-size="12">role</text>
</g>

<!-- Entity RESERVATION -->
<g>
	<g>
		<rect x="332" y="254" width="118" height="25" fill="#abdda4" stroke="none" stroke-width="0" opacity="1"/>
		<rect x="332" y="279" width="118" height="93" fill="#e6f598" stroke="none" stroke-width="0" opacity="1"/>
		<rect x="332" y="254" width="118" height="118" fill="none" stroke="#66c2a5" stroke-width="2" opacity="1"/>
		<line x1="332" y1="279" x2="450" y2="279" stroke="#66c2a5" stroke-width="1"/>
	</g>
	<text x="357" y="271.75" fill="#000000" font-family="Verdana" font-size="12">reservation</text>
	<text x="337" y="296.8" fill="#000000" font-family="Verdana" font-size="12">code_Réservation</text>
	<line x1="337" y1="299" x2="445" y2="299" stroke="#000000" stroke-width="1"/>
	<text x="337" y="313.8" fill="#000000" font-family="Verdana" font-size="12">num_Reservation</text>
	<text x="337" y="330.8" fill="#000000" font-family="Verdana" font-size="12">date_Visite</text>
	<text x="337" y="347.8" fill="#000000" font-family="Verdana" font-size="12">statut</text>
	<text x="337" y="364.8" fill="#000000" font-family="Verdana" font-size="12">prix_Total</text>
</g>

<!-- Entity BILLET -->
<g>
	<g>
		<rect x="582" y="254" width="98" height="25" fill="#abdda4" stroke="none" stroke-width="0" opacity="1"/>
		<rect x="582" y="279" width="98" height="93" fill="#e6f598" stroke="none" stroke-width="0" opacity="1"/>
		<rect x="582" y="254" width="98" height="118" fill="none" stroke="#66c2a5" stroke-width="2" opacity="1"/>
		<line x1="582" y1="279" x2="680" y2="279" stroke="#66c2a5" stroke-width="1"/>
	</g>
	<text x="616" y="271.75" fill="#000000" font-family="Verdana" font-size="12">billet</text>
	<text x="587" y="296.8" fill="#000000" font-family="Verdana" font-size="12">code_Billet</text>
	<line x1="587" y1="299" x2="654" y2="299" stroke="#000000" stroke-width="1"/>
	<text x="587" y="313.8" fill="#000000" font-family="Verdana" font-size="12">nom</text>
	<text x="587" y="330.8" fill="#000000" font-family="Verdana" font-size="12">prix</text>
	<text x="587" y="347.8" fill="#000000" font-family="Verdana" font-size="12">quantite_Billet</text>
	<text x="587" y="364.8" fill="#000000" font-family="Verdana" font-size="12">description</text>
</g>

<!-- Entity CATEGORIE -->
<g>
	<g>
		<rect x="222" y="448" width="106" height="25" fill="#abdda4" stroke="none" stroke-width="0" opacity="1"/>
		<rect x="222" y="473" width="106" height="59" fill="#e6f598" stroke="none" stroke-width="0" opacity="1"/>
		<rect x="222" y="448" width="106" height="84" fill="none" stroke="#66c2a5" stroke-width="2" opacity="1"/>
		<line x1="222" y1="473" x2="328" y2="473" stroke="#66c2a5" stroke-width="1"/>
	</g>
	<text x="247" y="465.75" fill="#000000" font-family="Verdana" font-size="12">categorie</text>
	<text x="227" y="490.8" fill="#000000" font-family="Verdana" font-size="12">code_Catégorie</text>
	<line x1="227" y1="493" x2="322" y2="493" stroke="#000000" stroke-width="1"/>
	<text x="227" y="507.8" fill="#000000" font-family="Verdana" font-size="12">nom</text>
	<text x="227" y="524.8" fill="#000000" font-family="Verdana" font-size="12">description</text>
</g>

<!-- Entity ATTRACTION -->
<g>
	<g>
		<rect x="463" y="422" width="106" height="25" fill="#abdda4" stroke="none" stroke-width="0" opacity="1"/>
		<rect x="463" y="447" width="106" height="111" fill="#e6f598" stroke="none" stroke-width="0" opacity="1"/>
		<rect x="463" y="422" width="106" height="136" fill="none" stroke="#66c2a5" stroke-width="2" opacity="1"/>
		<line x1="463" y1="447" x2="569" y2="447" stroke="#66c2a5" stroke-width="1"/>
	</g>
	<text x="487" y="439.75" fill="#000000" font-family="Verdana" font-size="12">attraction</text>
	<text x="468" y="464.8" fill="#000000" font-family="Verdana" font-size="12">code_Attraction</text>
	<line x1="468" y1="467" x2="564" y2="467" stroke="#000000" stroke-width="1"/>
	<text x="468" y="481.8" fill="#000000" font-family="Verdana" font-size="12">nom</text>
	<text x="468" y="498.8" fill="#000000" font-family="Verdana" font-size="12">description</text>
	<text x="468" y="515.8" fill="#000000" font-family="Verdana" font-size="12">image_Url</text>
	<text x="468" y="532.8" fill="#000000" font-family="Verdana" font-size="12">taille_Min</text>
	<text x="468" y="549.8" fill="#000000" font-family="Verdana" font-size="12">taille_Max</text>
</g>
</svg>