<svg width="62" height="62" viewBox="0 0 62 62" fill="none" xmlns="http://www.w3.org/2000/svg">
<path fill-rule="evenodd" clip-rule="evenodd" d="M31 8.39584C32.07 8.39584 32.9375 9.2633 32.9375 10.3333V46.989L45.1301 34.7967C45.8867 34.0401 47.1133 34.0401 47.8699 34.7967C48.6266 35.5534 48.6266 36.78 47.8699 37.5366L32.3699 53.0366C32.0067 53.4001 31.5138 53.6042 31 53.6042C30.4862 53.6042 29.9933 53.4001 29.6301 53.0366L14.13 37.5366C13.3733 36.78 13.3733 35.5534 14.13 34.7967C14.8866 34.0401 16.1134 34.0401 16.87 34.7967L29.0625 46.989V10.3333C29.0625 9.2633 29.93 8.39584 31 8.39584Z" fill="#E5484D"/>
</svg>
