<svg width="36" height="62" viewBox="0 0 36 62" fill="none" xmlns="http://www.w3.org/2000/svg">
<path d="M35.9203 8.85714V1.47693C35.9203 0.662071 35.3489 0 34.6481 0H1.58175C0.882521 0 0.311157 0.662071 0.311157 1.47693V8.85714C0.311157 9.67421 0.882521 10.3341 1.58175 10.3341H3.49008V12.5395C3.49008 20.1079 7.20638 27.0054 13.0285 30.3689V31.6289C7.208 34.9901 3.49008 41.8788 3.49008 49.4516V51.6704H1.58175C0.882521 51.6681 0.311157 52.3302 0.311157 53.1406V60.5253C0.311157 61.3401 0.882521 62 1.58175 62H34.6481C35.3489 62 35.9203 61.3401 35.9203 60.5253V53.1406C35.9203 52.3302 35.3489 51.6681 34.6481 51.6681H32.7397V49.4494C32.7397 41.8766 29.0218 34.9835 23.1965 31.6222V30.3711C29.0218 27.0099 32.7397 20.1146 32.7397 12.5373V10.3319H34.6481C35.3489 10.3341 35.9203 9.67421 35.9203 8.85714ZM31.9903 54.6176H33.3742V59.0461H2.85397V54.6176H4.7623H31.4691H31.9903ZM29.7372 16.7533C29.4977 18.0243 28.8211 19.7049 28.8211 19.7049C27.3417 23.3696 24.7487 26.3876 21.416 28.0816C20.9531 28.3163 20.6553 28.8477 20.6553 29.4345V32.5633C20.6553 33.1501 20.9531 33.6793 21.416 33.9162C26.7509 36.6309 30.2001 42.7269 30.2001 49.4516V51.6726H29.0898H25.8283H10.3999H7.16591H6.03289V49.4539C6.03289 42.7291 9.4805 36.6354 14.8105 33.9184C15.2735 33.6859 15.5713 33.1567 15.5713 32.5699V29.4279C15.5713 28.8433 15.2735 28.3141 14.8105 28.0771C11.4811 26.381 8.88972 23.3674 7.41032 19.7027C6.85352 18.4627 6.49581 16.7511 6.49581 16.7511C6.19314 15.3937 6.03289 13.9788 6.03289 12.5373V10.3562H30.1985V12.5373C30.1985 13.9788 30.0367 15.3959 29.7372 16.7533ZM33.3758 7.38021H31.4691C31.3947 7.38021 31.3235 7.38907 31.2522 7.40236H4.97757C4.90797 7.38907 4.83675 7.38021 4.7623 7.38021H2.85397V2.95164H33.3742L33.3758 7.38021Z" fill="white"/>
</svg>
