<svg width="63" height="62" viewBox="0 0 63 62" fill="none" xmlns="http://www.w3.org/2000/svg">
<g clip-path="url(#clip0_65_234)">
<path d="M61.9125 46.5911H60.8692V30.0294C60.8692 23.1051 55.1706 17.4717 48.166 17.4717C44.4393 17.4717 41.1532 18.925 38.6606 21.6752L34.8692 25.4054C34.7864 25.4636 34.7138 25.5351 34.6546 25.6166L31.474 28.7456L28.2935 25.6166C28.2341 25.535 28.1616 25.4635 28.0787 25.4053L24.4027 21.7886C24.3261 21.6656 24.2212 21.5623 24.0963 21.4872L23.4301 20.8318C23.4267 20.8285 23.423 20.8257 23.4196 20.8225C23.4155 20.8186 23.4121 20.8145 23.4079 20.8107C21.0542 18.6574 17.9907 17.4717 14.7819 17.4717C7.77738 17.4717 2.07876 23.1051 2.07876 30.0294V46.5911H1.03551C0.527137 46.5911 0.11499 46.9985 0.11499 47.501C0.11499 48.0036 0.527137 48.411 1.03551 48.411H61.9125C62.4208 48.411 62.833 48.0036 62.833 47.501C62.833 46.9985 62.4208 46.5911 61.9125 46.5911ZM59.0282 30.0294V46.5911H55.9598V22.5582C57.8578 24.4926 59.0282 27.1281 59.0282 30.0294ZM54.1187 46.5911H52.0322V19.9952C52.7804 20.2779 53.489 20.64 54.1476 21.0712C54.1294 21.1425 54.1187 21.2168 54.1187 21.2937V46.5911ZM50.1912 19.4796V46.5911H48.1047V19.3523C48.1047 19.332 48.103 19.3123 48.1016 19.2925C48.1231 19.2924 48.1444 19.2916 48.166 19.2916C48.858 19.2916 49.5348 19.3567 50.1912 19.4796ZM46.2636 46.5911H44.1771V20.323C44.1771 20.221 44.1595 20.1235 44.1282 20.032C44.8108 19.7653 45.524 19.5697 46.2636 19.4468V46.5911ZM42.3361 20.9397V46.5911H40.2496V22.6564C40.8899 21.9866 41.588 21.4136 42.3361 20.9397ZM10.9157 41.9918V46.5911H8.82923V41.1201C9.49213 41.4693 10.1898 41.762 10.9157 41.9918ZM12.7568 42.4269C13.4165 42.5318 14.0928 42.5871 14.7819 42.5871C14.8024 42.5871 14.8228 42.5865 14.8433 42.5864V46.5911H12.7568V42.4269ZM16.6843 42.4459C17.3955 42.3401 18.0931 42.1755 18.7708 41.9542V46.5911H16.6843V42.4459ZM20.6119 41.1886C21.3457 40.8134 22.0447 40.3664 22.6984 39.8508V46.5911H20.6119V41.1886ZM24.5394 38.1356L26.6259 36.0828V46.5911H24.5394V38.1356ZM28.467 34.2716L30.5535 32.2188V46.5911H28.467V34.2716ZM32.3945 30.4076L34.481 28.3548V46.5911H32.3945V30.4076ZM36.322 26.5436L38.4086 24.4908V46.5911H36.322V26.5436ZM6.98819 22.5582V33.912C6.98819 34.4145 7.40034 34.822 7.90871 34.822C8.41708 34.822 8.82923 34.4145 8.82923 33.912V21.2936C8.82923 21.2167 8.81855 21.1424 8.80039 21.0711C9.45899 20.6399 10.1677 20.2778 10.9157 19.9951V36.8239C10.9157 37.3265 11.3279 37.7339 11.8363 37.7339C12.3446 37.7339 12.7568 37.3265 12.7568 36.8239V19.4796C13.4132 19.3567 14.0899 19.2916 14.7819 19.2916C14.8034 19.2916 14.8248 19.293 14.8464 19.2931C14.8451 19.3128 14.8433 19.3323 14.8433 19.3523V37.7946C14.8433 38.2971 15.2554 38.7046 15.7638 38.7046C16.2722 38.7046 16.6843 38.2971 16.6843 37.7946V19.4585C17.4145 19.5862 18.1267 19.7863 18.8111 20.0565C18.7851 20.1408 18.7708 20.2303 18.7708 20.323V35.8533C18.7708 36.3558 19.183 36.7633 19.6913 36.7633C20.1997 36.7633 20.6119 36.3558 20.6119 35.8533V20.9694C21.154 21.3111 21.669 21.7009 22.1489 22.139L22.6984 22.6797V32.9413C22.6984 33.4439 23.1105 33.8513 23.6189 33.8513C24.1273 33.8513 24.5394 33.4439 24.5394 32.9413V24.4909L26.6259 26.5437V29.0589C26.6259 29.5614 27.0381 29.9689 27.5464 29.9689C28.0548 29.9689 28.467 29.5614 28.467 29.0589V28.3549L30.1691 30.0294L22.1434 37.9252C20.1329 39.7581 17.5193 40.7672 14.7819 40.7672C8.79253 40.7672 3.9198 35.9502 3.9198 30.0294C3.9198 27.1281 5.09021 24.4926 6.98819 22.5582ZM3.9198 36.535C4.72617 37.8459 5.76869 38.9995 6.98819 39.939V46.5911H3.9198V36.535Z" fill="white"/>
<path d="M41.4999 16.8536C41.6302 16.8536 41.7629 16.826 41.8888 16.7679C43.8414 15.8661 45.9533 15.409 48.166 15.409C49.8103 15.409 51.426 15.675 52.9681 16.1998C53.4486 16.3637 53.9727 16.1108 54.1381 15.6356C54.3037 15.1603 54.0481 14.6425 53.5674 14.479C51.832 13.8886 50.0148 13.5891 48.166 13.5891C45.6822 13.5891 43.308 14.1038 41.1097 15.119C40.6491 15.3317 40.4501 15.8733 40.6653 16.3286C40.8216 16.6594 41.1534 16.8536 41.4999 16.8536Z" fill="white"/>
<path d="M36.4813 20.5352C36.7322 20.5352 36.9822 20.4344 37.1639 20.2361C37.6851 19.6673 38.2497 19.137 38.8418 18.6603C39.236 18.3429 39.2953 17.7697 38.9742 17.3801C38.6532 16.9904 38.0734 16.9317 37.6793 17.2492C37.0153 17.7838 36.3829 18.3777 35.7996 19.0144C35.4582 19.3869 35.4871 19.9624 35.8639 20.2997C36.04 20.4574 36.261 20.5352 36.4813 20.5352Z" fill="white"/>
</g>
<defs>
<clipPath id="clip0_65_234">
<rect width="62.718" height="62" fill="white" transform="translate(0.11499)"/>
</clipPath>
</defs>
</svg>
