<svg width="64" height="62" viewBox="0 0 64 62" fill="none" xmlns="http://www.w3.org/2000/svg">
<g clip-path="url(#clip0_65_241)">
<path d="M57.7247 27.125C58.2445 27.125 58.743 26.9209 59.1106 26.5575C59.4781 26.1942 59.6846 25.7014 59.6846 25.1875V15.5C59.6846 14.4723 59.2716 13.4867 58.5365 12.76C57.8014 12.0333 56.8044 11.625 55.7648 11.625H8.72627C7.68666 11.625 6.68962 12.0333 5.9545 12.76C5.21938 13.4867 4.8064 14.4723 4.8064 15.5V25.1875C4.8064 25.7014 5.01289 26.1942 5.38045 26.5575C5.74801 26.9209 6.24653 27.125 6.76633 27.125C7.80595 27.125 8.80298 27.5333 9.5381 28.26C10.2732 28.9867 10.6862 29.9723 10.6862 31C10.6862 32.0277 10.2732 33.0133 9.5381 33.74C8.80298 34.4667 7.80595 34.875 6.76633 34.875C6.24653 34.875 5.74801 35.0791 5.38045 35.4425C5.01289 35.8058 4.8064 36.2986 4.8064 36.8125V46.5C4.8064 47.5277 5.21938 48.5133 5.9545 49.24C6.68962 49.9667 7.68666 50.375 8.72627 50.375H55.7648C56.8044 50.375 57.8014 49.9667 58.5365 49.24C59.2716 48.5133 59.6846 47.5277 59.6846 46.5V36.8125C59.6846 36.2986 59.4781 35.8058 59.1106 35.4425C58.743 35.0791 58.2445 34.875 57.7247 34.875C56.6851 34.875 55.688 34.4667 54.9529 33.74C54.2178 33.0133 53.8048 32.0277 53.8048 31C53.8048 29.9723 54.2178 28.9867 54.9529 28.26C55.688 27.5333 56.6851 27.125 57.7247 27.125ZM55.7648 38.4981V46.5H42.0452V40.6875H38.1253V46.5H8.72627V38.4981C10.404 38.0647 11.889 37.0935 12.9488 35.7368C14.0087 34.38 14.5836 32.7142 14.5836 31C14.5836 29.2858 14.0087 27.62 12.9488 26.2632C11.889 24.9065 10.404 23.9353 8.72627 23.5019V15.5H38.1253V21.3125H42.0452V15.5H55.7648V23.5019C54.0871 23.9353 52.6021 24.9065 51.5422 26.2632C50.4824 27.62 49.9075 29.2858 49.9075 31C49.9075 32.7142 50.4824 34.38 51.5422 35.7368C52.6021 37.0935 54.0871 38.0647 55.7648 38.4981Z" fill="white"/>
<path d="M42.0451 25.1875H38.1252V36.8125H42.0451V25.1875Z" fill="white"/>
</g>
<defs>
<clipPath id="clip0_65_241">
<rect width="62.718" height="62" fill="white" transform="translate(0.886475)"/>
</clipPath>
</defs>
</svg>
