<svg width="1437" height="234" viewBox="0 0 1437 234" fill="none" xmlns="http://www.w3.org/2000/svg">
<path d="M0.332409 20.35L12.2539 50.4969C24.1755 80.6438 48.0186 140.938 71.9329 156.036C95.8472 171.135 119.833 141.038 143.818 110.941C167.804 80.8445 191.789 50.7478 215.704 65.8463C239.618 80.9448 263.461 141.239 287.383 151.347C311.306 161.078 335.306 121.566 359.292 91.1869C383.277 61.3726 407.248 40.6916 431.201 31.0269C455.155 20.9855 479.093 21.019 503.031 21.0524C526.969 21.0859 550.907 21.1193 574.822 36.2179C598.736 51.3164 622.627 81.48 646.533 101.569C670.439 122.034 694.362 131.483 718.284 141.874C742.206 152.265 766.129 161.714 790.051 172.105C813.972 182.495 837.895 191.944 861.881 162.13C885.867 131.751 909.914 62.1085 933.908 26.6448C957.902 -8.44221 981.84 -8.40877 1005.72 26.7452C1029.6 62.2757 1053.43 131.985 1077.32 162.431C1101.21 192.312 1125.17 182.93 1149.13 167.616C1173.09 152.867 1197.06 132.186 1220.98 142.577C1244.9 152.967 1268.78 192.546 1292.69 207.927C1316.61 222.744 1340.56 213.361 1364.5 213.112C1388.44 213.428 1412.36 222.877 1424.32 228.261L1436.28 233.268L1424.31 233.251C1412.34 233.235 1388.41 233.201 1364.47 233.168C1340.53 233.134 1316.59 233.101 1292.65 233.067C1268.72 233.034 1244.78 233 1220.84 232.967C1196.9 232.934 1172.96 232.9 1149.03 232.867C1125.09 232.833 1101.15 232.8 1077.21 232.766C1053.27 232.733 1029.34 232.699 1005.4 232.666C981.46 232.633 957.522 232.599 933.584 232.566C909.646 232.532 885.708 232.499 861.77 232.465C837.832 232.432 813.894 232.398 789.956 232.365C766.018 232.332 742.079 232.298 718.141 232.265C694.203 232.231 670.265 232.198 646.327 232.164C622.389 232.131 598.451 232.097 574.513 232.064C550.575 232.03 526.637 231.997 502.699 231.964C478.761 231.93 454.823 231.897 430.885 231.863C406.947 231.83 383.009 231.796 359.071 231.763C335.133 231.729 311.195 231.696 287.257 231.663C263.319 231.629 239.38 231.596 215.442 231.562C191.504 231.529 167.566 231.495 143.628 231.462C119.69 231.428 95.7522 231.395 71.8141 231.362C47.8761 231.328 23.938 231.295 11.969 231.278L1.23367e-06 231.261L0.332409 20.35Z" fill="#5E1C16"/>
</svg>
