<svg width="380" height="89" viewBox="0 0 380 89" fill="none" xmlns="http://www.w3.org/2000/svg">
<path d="M17.2651 75.6725L16.308 72.7574L25.4239 40.1979L7.35046 46.1321L6.18062 42.5693L29.0477 35.061L30.0048 37.9761L20.8889 70.5356L38.9623 64.6013L40.1322 68.1642L17.2651 75.6725Z" fill="#F4F4F4"/>
<path d="M75.7338 40.8108C76.6213 44.3841 76.7431 47.6323 76.0992 50.5555C75.4553 53.4787 74.1838 55.9256 72.2846 57.896C70.3854 59.8665 67.991 61.2106 65.1016 61.9283C62.2121 62.6459 59.4671 62.5784 56.8667 61.7255C54.2662 60.8727 51.9976 59.3051 50.0608 57.0229C48.124 54.7406 46.7119 51.8129 45.8243 48.2396C44.9368 44.6664 44.815 41.4181 45.4589 38.4949C46.1028 35.5717 47.3743 33.1248 49.2735 31.1544C51.1727 29.1839 53.5671 27.8398 56.4565 27.1222C59.346 26.4045 62.091 26.4721 64.6914 27.3249C67.2919 28.1778 69.5605 29.7453 71.4973 32.0276C73.4341 34.3098 74.8462 37.2376 75.7338 40.8108ZM71.7635 41.7969C71.0348 38.8633 69.9291 36.5093 68.4463 34.7349C66.9745 32.9577 65.2772 31.7576 63.3544 31.1345C61.4426 30.5088 59.4611 30.4506 57.4098 30.9601C55.3585 31.4696 53.6289 32.4495 52.2211 33.8998C50.8243 35.3474 49.8858 37.2022 49.4055 39.4642C48.9363 41.7235 49.066 44.3199 49.7946 47.2535C50.5233 50.1871 51.6235 52.5425 53.0953 54.3196C54.5781 56.0941 56.2754 57.2942 58.1871 57.92C60.1099 58.543 62.097 58.5998 64.1483 58.0903C66.1996 57.5808 67.9237 56.6023 69.3205 55.1547C70.7283 53.7044 71.6668 51.8496 72.136 49.5903C72.6163 47.3283 72.4921 44.7305 71.7635 41.7969Z" fill="#F4F4F4"/>
<path d="M86.3127 20.7767L91.296 19.9869L107.55 46.7497L107.954 46.6857L115.135 16.2085L120.118 15.4187L125.583 49.8974L121.677 50.5164L117.525 24.3207L117.188 24.3741L110.566 52.2775L106.795 52.8752L91.868 28.3872L91.5313 28.4406L95.6832 54.6363L91.7775 55.2554L86.3127 20.7767Z" fill="#F4F4F4"/>
<path d="M138.862 48.5564L136.221 13.7473L148.391 12.8241C150.816 12.6402 152.847 12.9077 154.486 13.6267C156.124 14.3344 157.381 15.3615 158.258 16.7081C159.135 18.0434 159.637 19.5608 159.766 21.2605C159.88 22.7562 159.707 24.0115 159.248 25.0264C158.801 26.0404 158.168 26.8633 157.35 27.4952C156.543 28.1263 155.652 28.6156 154.675 28.9632L154.701 29.3031C155.771 29.2903 156.87 29.583 157.998 30.1812C159.126 30.7794 160.101 31.6855 160.923 32.8996C161.744 34.1136 162.224 35.6385 162.364 37.4741C162.496 39.2191 162.218 40.8185 161.531 42.2724C160.844 43.7263 159.675 44.9261 158.026 45.8717C156.377 46.8174 154.182 47.3942 151.439 47.6022L138.862 48.5564ZM142.793 44.4974L151.156 43.863C153.909 43.6541 155.823 42.9732 156.898 41.8204C157.984 40.6555 158.468 39.3081 158.352 37.7784C158.263 36.6 157.88 35.535 157.204 34.5834C156.527 33.6205 155.61 32.8809 154.454 32.3646C153.298 31.837 151.96 31.6307 150.442 31.7459L141.875 32.3958L142.793 44.4974ZM141.597 28.7245L149.415 28.1314C150.684 28.0351 151.81 27.699 152.792 27.1231C153.785 26.5463 154.548 25.7819 155.079 24.8298C155.623 23.8769 155.848 22.7886 155.755 21.5648C155.639 20.0351 155.008 18.7781 153.862 17.7938C152.715 16.7982 150.986 16.388 148.674 16.5634L140.72 17.1668L141.597 28.7245Z" fill="#F4F4F4"/>
<path d="M178.931 11.3784L179.734 46.2782L175.508 46.3755L174.705 11.4756L178.931 11.3784Z" fill="#F4F4F4"/>
<path d="M193.239 46.0969L194.176 11.2003L215.236 11.7657L215.136 15.5143L198.301 15.0624L197.984 26.8536L213.729 27.2763L213.628 31.0249L197.884 30.6023L197.565 42.4617L214.673 42.9209L214.572 46.6695L193.239 46.0969Z" fill="#F4F4F4"/>
<path d="M226.87 47.4462L230.011 12.6787L234.221 13.0591L231.418 44.0918L247.579 45.5518L247.242 49.2866L226.87 47.4462Z" fill="#F4F4F4"/>
<path d="M259.765 50.8544L255.388 50.1606L273.512 17.6885L277.822 18.3716L285.018 54.8569L280.641 54.1631L274.938 23.5061L274.668 23.4634L259.765 50.8544ZM263.516 37.6423L281.159 40.4387L280.572 44.1425L262.929 41.3461L263.516 37.6423Z" fill="#F4F4F4"/>
<path d="M330.428 29.3892L322.338 63.348L318.359 62.3999L306.206 31.3286L305.874 31.2496L299.522 57.9126L295.41 56.933L303.5 22.9742L307.479 23.9222L319.683 55.0756L320.015 55.1546L326.382 28.4253L330.428 29.3892Z" fill="#F4F4F4"/>
<path d="M345.976 70.4156L335.725 67.104L346.456 33.8852L357.162 37.3435C360.384 38.3844 362.927 39.9402 364.789 42.0108C366.656 44.0706 367.8 46.536 368.222 49.407C368.647 52.2672 368.304 55.4166 367.194 58.8553C366.076 62.3156 364.497 65.0956 362.457 67.1953C360.421 69.2841 358.008 70.6182 355.217 71.1976C352.43 71.7661 349.35 71.5054 345.976 70.4156ZM340.901 64.8351L346.87 66.7633C349.616 67.6506 352.064 67.856 354.212 67.3797C356.36 66.9033 358.193 65.8298 359.712 64.159C361.231 62.4882 362.428 60.3011 363.301 57.5978C364.167 54.916 364.475 52.4659 364.224 50.2473C363.977 48.018 363.151 46.1031 361.745 44.5026C360.343 42.8913 358.344 41.6664 355.749 40.8281L349.326 38.7531L340.901 64.8351Z" fill="#F4F4F4"/>
</svg>
